# Blender v3.5.0 OBJ File: ''
# www.blender.org
mtllib stagefloor.mtl
o yuka.001
v 30.000000 0.999999 -7.500003
v 30.000000 -0.999999 7.499998
v 30.000000 -1.000001 -7.500002
v 30.000000 1.000001 7.499997
v -30.000000 -0.999999 7.500003
v -30.000000 1.000001 7.500002
v -30.000000 -1.000001 -7.499997
v -30.000000 0.999999 -7.499998
vt 0.017857 0.017857
vt 0.315476 0.315476
vt 0.017857 0.315476
vt 0.017857 0.351191
vt 0.315476 0.648810
vt 0.017857 0.648810
vt 0.351191 0.315476
vt 0.648810 0.017857
vt 0.648810 0.315476
vt 0.351190 0.648810
vt 0.648809 0.351191
vt 0.648810 0.648810
vt 0.017857 0.982143
vt 0.315476 0.684524
vt 0.315476 0.982143
vt -1.208843 0.992158
vt 2.208843 0.013980
vt 2.208843 0.992158
vt 0.315476 0.017857
vt 0.315476 0.351191
vt 0.351191 0.017857
vt 0.351190 0.351191
vt 0.017857 0.684524
vt -1.208843 0.013980
vn 1.0000 -0.0000 0.0000
vn 0.0000 0.0000 1.0000
vn -1.0000 0.0000 0.0000
vn -0.0000 -0.0000 -1.0000
vn 0.0000 -1.0000 0.0000
vn -0.0000 1.0000 -0.0000
usemtl マテリアル.011
s 1
f 1/1/1 2/2/1 3/3/1
f 4/4/2 5/5/2 2/6/2
f 6/7/3 7/8/3 5/9/3
f 8/10/4 3/11/4 7/12/4
f 5/13/5 3/14/5 2/15/5
f 4/16/6 8/17/6 6/18/6
f 1/1/1 4/19/1 2/2/1
f 4/4/2 6/20/2 5/5/2
f 6/7/3 8/21/3 7/8/3
f 8/10/4 1/22/4 3/11/4
f 5/13/5 7/23/5 3/14/5
f 4/16/6 1/24/6 8/17/6
