# Blender 4.0.2
# www.blender.org
mtllib gomibako_head.mtl
o 立方体.001
v -0.272143 2.846563 0.272143
v -0.272143 2.846563 -0.272143
v 0.272143 2.846563 0.272143
v 0.272143 2.846563 -0.272143
v -0.522524 3.573089 0.522524
v -0.522524 3.573089 -0.522524
v 0.522524 3.573089 0.522524
v 0.522524 3.573089 -0.522524
v -1.635455 3.970896 1.635455
v -1.635455 3.970896 -1.635455
v 1.635455 3.970896 1.635455
v 1.635455 3.970896 -1.635455
v -1.626853 4.389879 1.626853
v -1.626853 4.389879 -1.626853
v 1.626853 4.389879 1.626853
v 1.626853 4.389879 -1.626853
v -0.522524 3.573089 0.174175
v -0.522524 3.573089 -0.174175
v 0.522524 3.573089 0.174175
v 0.522524 3.573089 -0.174175
v 0.174175 3.573089 0.522524
v -0.174175 3.573089 0.522524
v 0.174175 3.573089 -0.522524
v -0.174175 3.573089 -0.522524
v -1.901015 3.954441 0.633672
v -1.901015 3.954441 -0.633672
v 1.901015 3.954441 0.633672
v 1.901015 3.954441 -0.633672
v 0.633672 3.954441 1.901015
v -0.633672 3.954441 1.901015
v 0.633672 3.954441 -1.901015
v -0.633672 3.954441 -1.901015
v 1.222267 3.564793 1.222267
v 1.438245 3.802177 1.438245
v -1.438245 3.802177 1.438245
v -1.222267 3.564793 1.222267
v -1.438245 3.802177 -1.438245
v -1.222267 3.564793 -1.222267
v 1.438245 3.802177 -1.438245
v 1.222267 3.564793 -1.222267
v -1.883290 4.439948 0.627763
v -1.883290 4.439948 -0.627763
v 1.883290 4.439948 0.627763
v 1.883290 4.439948 -0.627763
v 0.627763 4.439948 1.883290
v -0.627763 4.439948 1.883290
v 0.627763 4.439948 -1.883290
v -0.627763 4.439948 -1.883290
v -1.635421 4.110896 -1.635421
v -1.632535 4.250798 -1.632535
v 1.632535 4.250798 -1.632535
v 1.635421 4.110896 -1.635421
v 1.632535 4.250798 1.632535
v 1.635421 4.110896 1.635421
v -1.632535 4.250798 1.632535
v -1.635421 4.110896 1.635421
v -1.901884 4.117195 -0.633961
v -1.895883 4.279602 -0.631961
v -1.901884 4.117195 0.633961
v -1.895883 4.279602 0.631961
v -0.633961 4.117195 1.901884
v -0.631961 4.279602 1.895883
v 0.633961 4.117195 1.901884
v 0.631961 4.279602 1.895883
v 1.901884 4.117195 0.633961
v 1.895883 4.279602 0.631961
v 1.901884 4.117195 -0.633961
v 1.895883 4.279602 -0.631961
v -0.923689 4.987663 0.923689
v -0.923689 4.987663 -0.923689
v 0.923689 4.987663 0.923689
v 0.923689 4.987663 -0.923689
v 1.447645 3.471223 0.482548
v 1.695424 3.753887 0.565141
v 1.447645 3.471223 -0.482548
v 1.695424 3.753887 -0.565141
v 0.482548 3.471223 -1.447645
v 0.565141 3.753887 -1.695424
v -0.482548 3.471223 -1.447645
v -0.565141 3.753887 -1.695424
v -1.447645 3.471223 -0.482548
v -1.695424 3.753887 -0.565141
v -1.447645 3.471223 0.482548
v -1.695424 3.753887 0.565141
v 0.633961 4.117195 -1.901884
v 0.631961 4.279602 -1.895883
v -0.633961 4.117195 -1.901884
v -0.631961 4.279602 -1.895883
v -0.482548 3.471223 1.447645
v -0.565141 3.753887 1.695424
v 0.482548 3.471223 1.447645
v 0.565141 3.753887 1.695424
v -0.397333 3.036766 -0.397333
v -0.397333 3.036766 0.397333
v 1.851109 5.029652 0.263835
v 1.851109 5.029652 -0.263835
v 1.447810 5.259844 0.388205
v 1.447810 5.259844 -0.388205
vn -0.0000 -1.0000 -0.0000
vn 0.1034 -0.2667 0.9582
vn 0.2290 -0.7339 0.6396
vn -0.9454 -0.3258 -0.0000
vn -0.0000 -0.3258 -0.9454
vn 0.9454 -0.3258 -0.0000
vn -0.2516 0.0823 -0.9643
vn -0.6396 -0.7339 0.2290
vn -0.2290 -0.7339 -0.6396
vn 0.6396 -0.7339 -0.2290
vn 0.1773 0.8302 -0.5285
vn 0.9643 0.0823 -0.2516
vn 0.2516 0.0823 0.9643
vn -0.9643 0.0823 0.2516
vn -0.9655 0.0499 -0.2556
vn -0.9969 0.0783 -0.0000
vn -0.9664 0.0003 -0.2571
vn -0.9660 0.0252 -0.2572
vn -1.0000 -0.0053 -0.0000
vn -0.9993 0.0369 -0.0000
vn -0.9666 -0.0056 0.2563
vn -0.9661 0.0388 0.2554
vn -0.2556 0.0499 0.9655
vn -0.0000 0.0783 0.9969
vn -0.2571 0.0003 0.9664
vn -0.2572 0.0252 0.9660
vn -0.0000 -0.0053 1.0000
vn -0.0000 0.0369 0.9993
vn 0.2563 -0.0056 0.9666
vn 0.2554 0.0388 0.9661
vn 0.9655 0.0499 0.2556
vn 0.9969 0.0783 -0.0000
vn 0.9664 0.0003 0.2571
vn 0.9660 0.0252 0.2572
vn 1.0000 -0.0053 -0.0000
vn 0.9993 0.0369 -0.0000
vn 0.9666 -0.0056 -0.2563
vn 0.9661 0.0388 -0.2554
vn -0.5285 0.8302 -0.1773
vn -0.0000 0.8685 -0.4957
vn -0.5285 0.8302 0.1773
vn -0.4957 0.8685 -0.0000
vn -0.0000 0.8685 0.4957
vn -0.0000 1.0000 -0.0000
vn 0.1773 0.8302 0.5285
vn 0.9985 0.0545 -0.0000
vn 0.5458 -0.8229 0.1582
vn 0.6983 -0.7158 -0.0000
vn -0.1050 -0.9901 0.0933
vn 0.6120 -0.7590 0.2222
vn -0.1094 -0.9940 -0.0000
vn 0.7520 -0.6592 -0.0000
vn 0.6755 -0.6773 -0.2915
vn 0.1582 -0.8229 -0.5458
vn -0.0000 -0.7158 -0.6983
vn 0.0933 -0.9901 0.1050
vn 0.2222 -0.7590 -0.6120
vn -0.0000 -0.9940 0.1094
vn -0.0000 -0.6592 -0.7520
vn -0.2915 -0.6773 -0.6755
vn -0.5458 -0.8229 -0.1582
vn -0.6983 -0.7158 -0.0000
vn 0.1050 -0.9901 -0.0933
vn -0.6120 -0.7590 -0.2222
vn 0.1094 -0.9940 -0.0000
vn -0.7520 -0.6592 -0.0000
vn -0.6755 -0.6773 0.2915
vn 0.2556 0.0499 -0.9655
vn -0.0000 0.0783 -0.9969
vn 0.2571 0.0003 -0.9664
vn 0.2572 0.0252 -0.9660
vn -0.0000 -0.0053 -1.0000
vn -0.0000 0.0369 -0.9993
vn -0.2563 -0.0056 -0.9666
vn -0.2554 0.0388 -0.9661
vn -0.1582 -0.8229 0.5458
vn -0.0000 -0.7158 0.6983
vn -0.0933 -0.9901 -0.1050
vn -0.2222 -0.7590 0.6120
vn -0.0000 -0.9940 -0.1094
vn -0.0000 -0.6592 0.7520
vn 0.2915 -0.6773 0.6755
vn 0.4957 0.8685 -0.0000
vn 0.4956 0.4756 -0.7268
vn -0.4609 0.8875 -0.0000
vn 0.4956 0.4756 0.7268
vn -0.0000 -0.5498 0.8353
vn -0.0000 -0.3258 0.9454
vn -0.0000 -0.2273 0.9738
vn 0.1582 -0.8229 0.5458
vn -0.8353 -0.5498 -0.0000
vn -0.7071 -0.0000 -0.7071
vn -0.9722 -0.1976 0.1257
vn 0.7071 -0.0000 -0.7071
vn -0.2556 0.0499 -0.9655
vn -0.5458 -0.8229 0.1582
vn -0.1582 -0.8229 -0.5458
vn 0.5458 -0.8229 -0.1582
vn 0.5285 0.8302 -0.1773
vn 0.9655 0.0499 -0.2556
vn 0.2556 0.0499 0.9655
vn -0.9655 0.0499 0.2556
vn -0.9643 0.0823 -0.2516
vn -0.9666 -0.0056 -0.2563
vn -0.9661 0.0388 -0.2554
vn -0.9664 0.0003 0.2571
vn -0.9660 0.0252 0.2572
vn -0.2516 0.0823 0.9643
vn -0.2563 -0.0056 0.9666
vn -0.2554 0.0388 0.9661
vn 0.2571 0.0003 0.9664
vn 0.2572 0.0252 0.9660
vn 0.9643 0.0823 0.2516
vn 0.9666 -0.0056 0.2563
vn 0.9661 0.0388 0.2554
vn 0.9664 0.0003 -0.2571
vn 0.9660 0.0252 -0.2572
vn -0.1773 0.8302 -0.5285
vn -0.1773 0.8302 0.5285
vn 0.5285 0.8302 0.1773
vn 0.6396 -0.7339 0.2290
vn 0.6755 -0.6773 0.2915
vn -0.1050 -0.9901 -0.0933
vn 0.6120 -0.7590 -0.2222
vn 0.2290 -0.7339 -0.6396
vn 0.2915 -0.6773 -0.6755
vn -0.0933 -0.9901 0.1050
vn -0.2222 -0.7590 -0.6120
vn -0.6396 -0.7339 -0.2290
vn -0.6755 -0.6773 -0.2915
vn 0.1050 -0.9901 0.0933
vn -0.6120 -0.7590 0.2222
vn 0.2516 0.0823 -0.9643
vn 0.2563 -0.0056 -0.9666
vn 0.2554 0.0388 -0.9661
vn -0.2571 0.0003 -0.9664
vn -0.2572 0.0252 -0.9660
vn -0.2290 -0.7339 0.6396
vn -0.2915 -0.6773 0.6755
vn 0.0933 -0.9901 -0.1050
vn 0.2222 -0.7590 0.6120
vt 0.254233 0.906636
vt 0.209680 0.951188
vt 0.209680 0.906636
vt 0.893652 0.362491
vt 0.953146 0.399096
vt 0.909233 0.417327
vt 0.963679 0.947723
vt 0.965230 0.950420
vt 0.964541 0.950650
vt 0.989716 0.704373
vt 0.930243 0.667840
vt 0.930243 0.639325
vt 0.953146 0.513153
vt 0.893653 0.505206
vt 0.893652 0.448178
vt 0.269196 0.865573
vt 0.209680 0.857554
vt 0.209680 0.829040
vt 0.976205 0.979536
vt 0.975837 0.982868
vt 0.975668 0.979522
vt 0.963679 0.957366
vt 0.960982 0.958917
vt 0.960752 0.958228
vt 0.954036 0.957366
vt 0.952485 0.954669
vt 0.953174 0.954439
vt 0.954036 0.947723
vt 0.956733 0.946172
vt 0.956963 0.946861
vt 0.961895 0.962976
vt 0.964252 0.960619
vt 0.965111 0.963968
vt 0.973735 0.979533
vt 0.973368 0.982868
vt 0.973198 0.979519
vt 0.976818 0.949539
vt 0.977187 0.946201
vt 0.977356 0.949553
vt 0.973796 0.953773
vt 0.973426 0.957108
vt 0.973258 0.953759
vt 0.973796 0.949536
vt 0.973426 0.946201
vt 0.973893 0.946182
vt 0.973258 0.949550
vt 0.974831 0.946172
vt 0.974340 0.949529
vt 0.974362 0.946172
vt 0.974886 0.953779
vt 0.974886 0.949530
vt 0.974831 0.957137
vt 0.974340 0.953779
vt 0.973893 0.957127
vt 0.976818 0.953776
vt 0.977187 0.957108
vt 0.976720 0.957127
vt 0.977356 0.953762
vt 0.975782 0.957137
vt 0.976274 0.953783
vt 0.976251 0.957136
vt 0.975728 0.949533
vt 0.975728 0.953782
vt 0.975782 0.946172
vt 0.976274 0.949532
vt 0.976721 0.946182
vt 0.973735 0.975296
vt 0.973368 0.971961
vt 0.973834 0.971942
vt 0.973198 0.975311
vt 0.974772 0.971933
vt 0.974280 0.975290
vt 0.974303 0.971933
vt 0.974826 0.979539
vt 0.974826 0.975291
vt 0.974280 0.979540
vt 0.974772 0.982897
vt 0.973834 0.982888
vt 0.961895 0.969169
vt 0.964252 0.971526
vt 0.960903 0.972385
vt 0.965111 0.968177
vt 0.953345 0.971526
vt 0.955702 0.969169
vt 0.956694 0.972385
vt 0.952485 0.963968
vt 0.952485 0.968177
vt 0.955702 0.962976
vt 0.953345 0.960619
vt 0.960982 0.946172
vt 0.964340 0.947062
vt 0.960752 0.946861
vt 0.502226 0.123121
vt 0.498954 0.047394
vt 0.559504 0.065843
vt 0.505715 0.027112
vt 0.577183 0.048164
vt 0.445198 0.123121
vt 0.473712 0.123121
vt 0.564770 0.756709
vt 0.587953 0.670950
vt 0.587953 0.763470
vt 0.416684 0.123121
vt 0.419956 0.047394
vt 0.359406 0.065843
vt 0.413195 0.027112
vt 0.952485 0.950420
vt 0.953375 0.947062
vt 0.953174 0.950650
vt 0.340957 0.126393
vt 0.320675 0.119632
vt 0.341727 0.048164
vt 0.416684 0.151635
vt 0.340957 0.205391
vt 0.232841 0.773126
vt 0.209680 0.687439
vt 0.232841 0.694128
vt 0.416684 0.208663
vt 0.416684 0.180149
vt 0.359406 0.265941
vt 0.320675 0.212152
vt 0.956733 0.958917
vt 0.953375 0.958027
vt 0.956963 0.958228
vt 0.419956 0.284390
vt 0.413195 0.304672
vt 0.341727 0.283620
vt 0.445198 0.208663
vt 0.498954 0.284390
vt 0.564770 0.790798
vt 0.587911 0.876557
vt 0.564770 0.869797
vt 0.502226 0.208663
vt 0.473712 0.208663
vt 0.559504 0.265941
vt 0.505715 0.304672
vt 0.976205 0.975300
vt 0.975837 0.971961
vt 0.976303 0.971942
vt 0.975668 0.975313
vt 0.977241 0.971933
vt 0.976750 0.975293
vt 0.976772 0.971933
vt 0.977295 0.979542
vt 0.977295 0.975294
vt 0.976750 0.979543
vt 0.977241 0.982897
vt 0.976303 0.982887
vt 0.965230 0.954669
vt 0.964340 0.958027
vt 0.964541 0.954439
vt 0.577953 0.205391
vt 0.598235 0.212152
vt 0.577183 0.283620
vt 0.502226 0.151635
vt 0.502226 0.180149
vt 0.253409 0.694128
vt 0.276570 0.779958
vt 0.253409 0.773126
vt 0.577953 0.126393
vt 0.598235 0.119632
vt 0.956694 0.959759
vt 0.960903 0.959759
vt 0.254233 0.951188
vt 0.893652 0.407043
vt 0.953146 0.342068
vt 0.953146 0.370582
vt 0.953146 0.427610
vt 0.974145 0.649573
vt 0.989716 0.659820
vt 0.974145 0.714621
vt 0.930243 0.724868
vt 0.930243 0.696354
vt 0.953146 0.468600
vt 0.937565 0.523436
vt 0.893653 0.533720
vt 0.893652 0.476692
vt 0.209680 0.800525
vt 0.269196 0.821020
vt 0.209680 0.886068
vt 0.974362 0.957137
vt 0.976252 0.946172
vt 0.974303 0.982897
vt 0.564770 0.677711
vt 0.209680 0.779958
vt 0.587911 0.784037
vt 0.976772 0.982897
vt 0.276570 0.687439
s 0
usemtl マテリアル
f 4/1/1 1/2/1 2/3/1
f 3/4/2 22/5/2 94/6/2
f 34/7/3 29/8/3 92/9/3
f 1/10/4 18/11/4 6/12/4
f 2/13/5 24/14/5 8/15/5
f 4/16/6 20/17/6 19/18/6
f 88/19/7 14/20/7 48/21/7
f 35/22/8 25/23/8 84/24/8
f 37/25/9 32/26/9 80/27/9
f 39/28/10 28/29/10 76/30/10
f 72/31/11 16/32/11 47/33/11
f 68/34/12 16/35/12 44/36/12
f 64/37/13 15/38/13 45/39/13
f 60/40/14 13/41/14 41/42/14
f 58/43/15 14/44/15 50/45/15
f 60/40/16 42/46/16 58/43/16
f 10/47/17 57/48/17 49/49/17
f 57/48/18 50/45/18 49/49/18
f 25/50/19 57/48/19 26/51/19
f 57/48/20 60/40/20 58/43/20
f 9/52/21 59/53/21 25/50/21
f 59/53/22 55/54/22 60/40/22
f 62/55/23 13/56/23 55/57/23
f 64/37/24 46/58/24 62/55/24
f 9/59/25 61/60/25 56/61/25
f 61/60/26 55/57/26 56/61/26
f 29/62/27 61/60/27 30/63/27
f 61/60/28 64/37/28 62/55/28
f 11/64/29 63/65/29 29/62/29
f 63/65/30 53/66/30 64/37/30
f 66/67/31 15/68/31 53/69/31
f 68/34/32 43/70/32 66/67/32
f 11/71/33 65/72/33 54/73/33
f 65/72/34 53/69/34 54/73/34
f 28/74/35 65/72/35 27/75/35
f 67/76/36 66/67/36 65/72/36
f 12/77/37 67/76/37 28/74/37
f 67/76/38 51/78/38 68/34/38
f 70/79/39 14/80/39 42/81/39
f 70/79/40 47/33/40 48/82/40
f 13/83/41 69/84/41 41/85/41
f 69/84/42 42/81/42 41/85/42
f 45/86/43 69/84/43 46/87/43
f 71/88/44 70/79/44 69/84/44
f 15/89/45 71/88/45 45/86/45
f 44/36/46 95/70/46 43/70/46
f 34/7/47 27/90/47 11/91/47
f 76/30/48 27/90/48 74/92/48
f 7/93/49 73/94/49 33/95/49
f 33/95/50 74/96/50 34/97/50
f 20/98/51 73/94/51 19/99/51
f 73/100/52 76/101/52 74/102/52
f 8/103/51 75/104/51 20/98/51
f 40/105/53 76/106/53 75/104/53
f 39/28/54 31/107/54 12/108/54
f 80/27/55 31/107/55 78/109/55
f 8/103/56 77/110/56 40/105/56
f 40/105/57 78/111/57 39/112/57
f 23/113/58 79/114/58 77/110/58
f 79/115/59 78/116/59 77/117/59
f 6/118/58 79/114/58 24/119/58
f 38/120/60 80/121/60 79/114/60
f 37/25/61 26/122/61 10/123/61
f 82/124/62 25/23/62 26/122/62
f 6/118/63 81/125/63 38/120/63
f 38/120/64 82/126/64 37/127/64
f 18/128/65 83/129/65 81/125/65
f 83/130/66 82/131/66 81/132/66
f 5/133/65 83/129/65 17/134/65
f 36/135/67 84/136/67 83/129/67
f 86/137/68 16/138/68 51/139/68
f 88/19/69 47/140/69 86/137/69
f 12/141/70 85/142/70 52/143/70
f 85/142/71 51/139/71 52/143/71
f 32/144/72 85/142/72 31/145/72
f 87/146/73 86/137/73 85/142/73
f 10/147/74 87/146/74 32/144/74
f 87/146/75 50/148/75 88/19/75
f 35/22/76 30/149/76 9/150/76
f 92/9/77 30/149/77 90/151/77
f 5/133/78 89/152/78 36/135/78
f 36/135/79 90/153/79 35/154/79
f 21/155/80 89/152/80 22/156/80
f 91/157/81 90/158/81 89/159/81
f 7/93/80 91/160/80 21/155/80
f 33/95/82 92/161/82 91/160/82
f 95/162/83 98/31/83 97/88/83
f 44/163/84 98/31/84 96/163/84
f 71/88/85 98/31/85 72/31/85
f 43/162/86 97/88/86 71/88/86
f 4/1/1 3/164/1 1/2/1
f 94/6/87 1/165/87 3/4/87
f 3/4/88 7/166/88 21/167/88
f 22/5/89 5/168/89 94/6/89
f 3/4/88 21/167/88 22/5/88
f 34/7/90 11/91/90 29/8/90
f 93/169/91 2/170/91 1/10/91
f 1/10/92 94/171/92 5/172/92
f 1/10/4 5/172/4 17/173/4
f 6/12/93 93/169/93 1/10/93
f 1/10/4 17/173/4 18/11/4
f 8/15/5 4/174/5 2/13/5
f 2/13/94 93/175/94 6/176/94
f 24/14/1 23/177/1 8/15/1
f 2/13/5 6/176/5 24/14/5
f 7/178/6 3/179/6 4/16/6
f 4/16/6 8/180/6 20/17/6
f 19/18/6 7/178/6 4/16/6
f 88/19/95 50/148/95 14/20/95
f 35/22/96 9/150/96 25/23/96
f 37/25/97 10/123/97 32/26/97
f 39/28/98 12/108/98 28/29/98
f 72/31/99 44/163/99 16/32/99
f 68/34/100 51/78/100 16/35/100
f 64/37/101 53/66/101 15/38/101
f 60/40/102 55/54/102 13/41/102
f 58/43/103 42/46/103 14/44/103
f 60/40/16 41/42/16 42/46/16
f 10/47/104 26/51/104 57/48/104
f 57/48/105 58/43/105 50/45/105
f 25/50/19 59/53/19 57/48/19
f 57/48/20 59/53/20 60/40/20
f 9/52/106 56/181/106 59/53/106
f 59/53/107 56/181/107 55/54/107
f 62/55/108 46/58/108 13/56/108
f 64/37/24 45/39/24 46/58/24
f 9/59/109 30/63/109 61/60/109
f 61/60/110 62/55/110 55/57/110
f 29/62/27 63/65/27 61/60/27
f 61/60/28 63/65/28 64/37/28
f 11/64/111 54/182/111 63/65/111
f 63/65/112 54/182/112 53/66/112
f 66/67/113 43/70/113 15/68/113
f 68/34/32 44/36/32 43/70/32
f 11/71/114 27/75/114 65/72/114
f 65/72/115 66/67/115 53/69/115
f 28/74/35 67/76/35 65/72/35
f 67/76/36 68/34/36 66/67/36
f 12/77/116 52/183/116 67/76/116
f 67/76/117 52/183/117 51/78/117
f 70/79/118 48/82/118 14/80/118
f 70/79/40 72/31/40 47/33/40
f 13/83/119 46/87/119 69/84/119
f 69/84/42 70/79/42 42/81/42
f 45/86/43 71/88/43 69/84/43
f 71/88/44 72/31/44 70/79/44
f 15/89/120 43/162/120 71/88/120
f 44/36/46 96/36/46 95/70/46
f 34/7/121 74/92/121 27/90/121
f 76/30/48 28/29/48 27/90/48
f 7/93/51 19/99/51 73/94/51
f 33/95/122 73/94/122 74/96/122
f 20/98/51 75/104/51 73/94/51
f 73/100/52 75/184/52 76/101/52
f 8/103/123 40/105/123 75/104/123
f 40/105/124 39/112/124 76/106/124
f 39/28/125 78/109/125 31/107/125
f 80/27/55 32/26/55 31/107/55
f 8/103/58 23/113/58 77/110/58
f 40/105/126 77/110/126 78/111/126
f 23/113/58 24/119/58 79/114/58
f 79/115/59 80/185/59 78/116/59
f 6/118/127 38/120/127 79/114/127
f 38/120/128 37/127/128 80/121/128
f 37/25/129 82/124/129 26/122/129
f 82/124/62 84/24/62 25/23/62
f 6/118/65 18/128/65 81/125/65
f 38/120/130 81/125/130 82/126/130
f 18/128/65 17/134/65 83/129/65
f 83/130/66 84/186/66 82/131/66
f 5/133/131 36/135/131 83/129/131
f 36/135/132 35/154/132 84/136/132
f 86/137/133 47/140/133 16/138/133
f 88/19/69 48/21/69 47/140/69
f 12/141/134 31/145/134 85/142/134
f 85/142/135 86/137/135 51/139/135
f 32/144/72 87/146/72 85/142/72
f 87/146/73 88/19/73 86/137/73
f 10/147/136 49/187/136 87/146/136
f 87/146/137 49/187/137 50/148/137
f 35/22/138 90/151/138 30/149/138
f 92/9/77 29/8/77 30/149/77
f 5/133/80 22/156/80 89/152/80
f 36/135/139 89/152/139 90/153/139
f 21/155/80 91/160/80 89/152/80
f 91/157/81 92/188/81 90/158/81
f 7/93/140 33/95/140 91/160/140
f 33/95/141 34/97/141 92/161/141
f 95/162/83 96/163/83 98/31/83
f 44/163/84 72/31/84 98/31/84
f 71/88/85 97/88/85 98/31/85
f 43/162/86 95/162/86 97/88/86
