# Blender v3.5.0 OBJ File: ''
# www.blender.org
mtllib playerBody.mtl
o PBody
v -0.310061 1.763986 -0.078938
v -0.675502 -0.180530 -0.527268
v -0.869434 -0.180530 0.006940
v -0.000000 -0.180530 -0.809856
v 0.310060 1.763986 -0.388999
v 0.675502 -0.180530 -0.527268
v 0.869434 -0.180530 0.006940
v 0.310061 1.763986 0.231122
v 0.675502 -0.180529 0.541148
v 0.000000 1.763986 0.231122
v -0.675502 -0.180529 0.541149
v 0.000000 -0.180529 1.255723
v 0.000000 -0.180529 0.222934
v -0.000000 1.763986 -0.078938
v 0.310061 1.763986 -0.078938
v -0.310061 1.763986 -0.388999
v -0.000000 1.763986 -0.388999
v -0.310061 1.763986 0.231122
vt 0.209989 0.048179
vt 0.358390 0.006342
vt 0.358390 0.063224
vt 0.652308 0.156591
vt 0.687784 0.008512
vt 0.724235 0.151137
vt 0.393766 0.068132
vt 0.542167 0.088563
vt 0.393766 0.125014
vt 0.201275 0.083656
vt 0.358390 0.120107
vt 0.340723 0.196195
vt 0.095847 0.116900
vt 0.023920 0.083017
vt 0.095847 0.006929
vt 0.903174 0.048089
vt 0.938651 0.012613
vt 0.938651 0.048089
vt 0.974127 0.012613
vt 0.974127 0.048089
vt 0.167775 0.083017
vt 0.167775 0.139899
vt 0.550881 0.088563
vt 0.411433 0.201102
vt 0.616831 0.008512
vt 0.580380 0.151137
vt 0.167775 0.196782
vt 0.938651 0.083566
vt 0.974127 0.083566
vt 0.903174 0.083566
vt 0.023920 0.196782
vt 0.095847 0.226872
vt 0.393766 0.011249
vt 0.542167 0.053087
vt 0.209989 0.083656
vt 0.209989 0.012703
vt 0.652308 0.008512
vt 0.023920 0.139899
vt 0.903174 0.012613
vt 0.542167 0.017610
vn -0.7517 0.6585 -0.0369
vn -0.7223 -0.3095 -0.6185
vn -0.9551 -0.2962 -0.0101
vn 0.0000 -0.3350 -0.9422
vn 0.6122 0.5208 -0.5950
vn 0.7223 -0.3095 -0.6185
vn 0.9551 -0.2962 -0.0101
vn 0.5413 0.5437 0.6414
vn 0.7810 -0.3007 0.5474
vn -0.0000 0.6726 0.7400
vn -0.7810 -0.3007 0.5474
vn 0.0000 -0.1803 0.9836
vn 0.0000 -1.0000 0.0000
vn 0.0000 1.0000 -0.0000
vn 0.7517 0.6585 -0.0369
vn -0.6122 0.5208 -0.5950
vn -0.0000 0.6407 -0.7678
vn -0.5413 0.5437 0.6414
usemtl マテリアル
s 1
f 1/1/1 2/2/2 3/3/3
f 4/4/4 5/5/5 6/6/6
f 7/7/7 8/8/8 9/9/9
f 10/10/10 11/11/11 12/12/12
f 13/13/13 9/14/9 12/15/12
f 1/16/1 10/17/10 14/18/14
f 14/18/14 8/19/8 15/20/15
f 13/13/13 11/21/11 3/22/3
f 9/9/9 10/23/10 12/24/12
f 16/25/16 4/4/4 2/26/2
f 2/27/2 13/13/13 3/22/3
f 17/28/17 15/20/15 5/29/5
f 16/30/16 14/18/14 17/28/17
f 6/31/6 13/13/13 4/32/4
f 6/33/6 15/34/15 7/7/7
f 18/35/18 3/3/3 11/11/11
f 1/1/1 16/36/16 2/2/2
f 4/4/4 17/37/17 5/5/5
f 7/7/7 15/34/15 8/8/8
f 10/10/10 18/35/18 11/11/11
f 13/13/13 7/38/7 9/14/9
f 1/16/1 18/39/18 10/17/10
f 14/18/14 10/17/10 8/19/8
f 13/13/13 12/15/12 11/21/11
f 9/9/9 8/8/8 10/23/10
f 16/25/16 17/37/17 4/4/4
f 2/27/2 4/32/4 13/13/13
f 17/28/17 14/18/14 15/20/15
f 16/30/16 1/16/1 14/18/14
f 6/31/6 7/38/7 13/13/13
f 6/33/6 5/40/5 15/34/15
f 18/35/18 1/1/1 3/3/3
