# Blender 4.0.2
# www.blender.org
mtllib coin.mtl
o 立方体
v 0.752896 -0.752896 -0.296933
v 0.752896 0.752896 -0.296933
v 0.752896 -0.752896 0.296933
v 0.752896 0.752896 0.296933
v -0.752896 -0.752896 -0.296933
v -0.752896 0.752896 -0.296933
v -0.752896 -0.752896 0.296933
v -0.752896 0.752896 0.296933
v 0.848867 -0.848867 0.200870
v 0.913021 -0.913021 0.178580
v 0.913021 -0.913021 -0.178580
v 0.848867 -0.848867 -0.200870
v 0.848867 -0.509320 -0.334783
v 0.913021 -0.182604 -0.360084
v 0.913021 0.182604 -0.360084
v 0.848867 0.509320 -0.334783
v 0.848867 0.848867 -0.200870
v 0.913021 0.913021 -0.178580
v 0.913021 0.913021 0.178580
v 0.848867 0.848867 0.200870
v 0.848867 0.509320 0.334783
v 0.913021 0.182604 0.360084
v 0.913021 -0.182604 0.360084
v 0.848867 -0.509320 0.334783
v -0.509320 -0.848867 0.334783
v -0.182604 -0.913021 0.360084
v 0.182604 -0.913021 0.360084
v 0.509320 -0.848867 0.334783
v 0.509320 0.848867 0.334783
v 0.182604 0.913021 0.360084
v -0.182604 0.913021 0.360084
v -0.509320 0.848867 0.334783
v -0.848867 0.509320 0.334783
v -0.913021 0.182604 0.360084
v -0.913021 -0.182604 0.360084
v -0.848867 -0.509320 0.334783
v -0.848867 -0.848867 -0.200870
v -0.913021 -0.913021 -0.178580
v -0.913021 -0.913021 0.178580
v -0.848867 -0.848867 0.200870
v -0.848867 0.848867 0.200870
v -0.913021 0.913021 0.178580
v -0.913021 0.913021 -0.178580
v -0.848867 0.848867 -0.200870
v -0.848867 0.509320 -0.334783
v -0.913021 0.182604 -0.360084
v -0.913021 -0.182604 -0.360084
v -0.848867 -0.509320 -0.334783
v 0.509320 -0.848867 -0.334783
v 0.182604 -0.913021 -0.360084
v -0.182604 -0.913021 -0.360084
v -0.509320 -0.848867 -0.334783
v -0.509320 0.848867 -0.334783
v -0.182604 0.913021 -0.360084
v 0.182604 0.913021 -0.360084
v 0.509320 0.848867 -0.334783
v -0.596599 0.994332 0.235291
v -0.661276 1.102127 0.215568
v -0.661276 1.102127 -0.215568
v -0.596599 0.994332 -0.235291
v -0.220425 1.102127 0.260799
v -0.250965 1.254827 0.245435
v -0.250965 1.254827 -0.245435
v -0.220425 1.102127 -0.260799
v 0.220425 1.102127 0.260799
v 0.250965 1.254827 0.245435
v 0.250965 1.254827 -0.245435
v 0.220425 1.102127 -0.260799
v 0.596599 0.994332 0.235291
v 0.661276 1.102127 0.215568
v 0.661276 1.102127 -0.215568
v 0.596599 0.994332 -0.235291
v 0.596599 -0.994332 0.235291
v 0.661276 -1.102127 0.215568
v 0.661276 -1.102127 -0.215568
v 0.596599 -0.994332 -0.235291
v 0.220425 -1.102127 0.260799
v 0.250965 -1.254827 0.245435
v 0.250965 -1.254827 -0.245435
v 0.220425 -1.102127 -0.260799
v -0.220425 -1.102127 0.260799
v -0.250965 -1.254827 0.245435
v -0.250965 -1.254827 -0.245435
v -0.220425 -1.102127 -0.260799
v -0.596599 -0.994332 0.235291
v -0.661276 -1.102127 0.215568
v -0.661276 -1.102127 -0.215568
v -0.596599 -0.994332 -0.235291
v -0.596599 -0.596599 -0.392152
v -0.220425 -0.661276 -0.434665
v 0.220425 -0.661276 -0.434665
v 0.596599 -0.596599 -0.392152
v -0.661276 -0.220425 -0.434665
v -0.250965 -0.250965 -0.494888
v 0.250965 -0.250965 -0.494888
v 0.661276 -0.220425 -0.434665
v -0.661276 0.220425 -0.434665
v -0.250965 0.250965 -0.494888
v 0.250965 0.250965 -0.494888
v 0.661276 0.220425 -0.434665
v -0.596599 0.596599 -0.392152
v -0.220425 0.661276 -0.434665
v 0.220425 0.661276 -0.434665
v 0.596599 0.596599 -0.392152
v -0.994332 -0.596599 0.235291
v -1.102127 -0.661276 0.215568
v -1.102127 -0.661276 -0.215568
v -0.994332 -0.596599 -0.235291
v -1.102127 -0.220425 0.260799
v -1.254827 -0.250965 0.245435
v -1.254827 -0.250965 -0.245435
v -1.102127 -0.220425 -0.260799
v -1.102127 0.220425 0.260799
v -1.254827 0.250965 0.245435
v -1.254827 0.250965 -0.245435
v -1.102127 0.220425 -0.260799
v -0.994332 0.596599 0.235291
v -1.102127 0.661276 0.215568
v -1.102127 0.661276 -0.215568
v -0.994332 0.596599 -0.235291
v 0.596599 -0.596599 0.392152
v 0.220425 -0.661276 0.434665
v -0.220425 -0.661276 0.434665
v -0.596599 -0.596599 0.392152
v 0.661276 -0.220425 0.434665
v 0.250965 -0.250965 0.494888
v -0.250965 -0.250965 0.494888
v -0.661276 -0.220425 0.434665
v 0.661276 0.220425 0.434665
v 0.250965 0.250965 0.494888
v -0.250965 0.250965 0.494888
v -0.661276 0.220425 0.434665
v 0.596599 0.596599 0.392152
v 0.220425 0.661276 0.434665
v -0.220425 0.661276 0.434665
v -0.596599 0.596599 0.392152
v 0.994332 -0.596599 -0.235291
v 1.102127 -0.661276 -0.215568
v 1.102127 -0.661276 0.215568
v 0.994332 -0.596599 0.235291
v 1.102127 -0.220425 -0.260799
v 1.254827 -0.250965 -0.245435
v 1.254827 -0.250965 0.245435
v 1.102127 -0.220425 0.260799
v 1.102127 0.220425 -0.260799
v 1.254827 0.250965 -0.245435
v 1.254827 0.250965 0.245435
v 1.102127 0.220425 0.260799
v 0.994332 0.596599 -0.235291
v 1.102127 0.661276 -0.215568
v 1.102127 0.661276 0.215568
v 0.994332 0.596599 0.235291
vn 0.4118 0.2962 0.8618
vn -0.2989 0.2604 0.9181
vn -0.4118 0.2962 -0.8618
vn 0.2989 0.2604 -0.9181
vn -0.2962 -0.4118 -0.8618
vn 0.2962 0.4118 -0.8618
vn -0.3689 0.4469 -0.8150
vn -0.1936 0.4721 -0.8600
vn -0.0000 0.4648 -0.8854
vn 0.1541 0.4350 -0.8872
vn -0.3689 0.4469 0.8150
vn -0.2255 0.1108 0.9679
vn -0.6006 0.7995 -0.0000
vn -0.2255 0.1108 -0.9679
vn -0.1936 0.4721 0.8600
vn -0.1137 0.1124 0.9871
vn -0.3488 0.9372 -0.0000
vn -0.1137 0.1124 -0.9871
vn -0.0000 0.4648 0.8854
vn -0.0000 0.1001 0.9950
vn -0.0000 1.0000 -0.0000
vn -0.0000 0.1001 -0.9950
vn 0.1541 0.4350 0.8872
vn 0.0907 0.0817 0.9925
vn 0.3488 0.9372 -0.0000
vn 0.0907 0.0817 -0.9925
vn 0.2962 0.4118 0.8618
vn 0.1764 0.0737 0.9815
vn 0.6006 0.7995 -0.0000
vn 0.1764 0.0737 -0.9815
vn 0.3689 -0.4469 -0.8150
vn 0.1936 -0.4721 -0.8600
vn -0.0000 -0.4648 -0.8854
vn -0.1541 -0.4350 -0.8872
vn 0.3689 -0.4469 0.8150
vn 0.2255 -0.1108 0.9679
vn 0.6006 -0.7995 -0.0000
vn 0.2255 -0.1108 -0.9679
vn 0.1936 -0.4721 0.8600
vn 0.1137 -0.1124 0.9871
vn 0.3488 -0.9372 -0.0000
vn 0.1137 -0.1124 -0.9871
vn -0.0000 -0.4648 0.8854
vn -0.0000 -0.1001 0.9950
vn -0.0000 -1.0000 -0.0000
vn -0.0000 -0.1001 -0.9950
vn -0.1541 -0.4350 0.8872
vn -0.0907 -0.0817 0.9925
vn -0.3488 -0.9372 -0.0000
vn -0.0907 -0.0817 -0.9925
vn -0.2962 -0.4118 0.8618
vn -0.1764 -0.0737 0.9815
vn -0.6006 -0.7995 -0.0000
vn -0.1764 -0.0737 -0.9815
vn 0.2604 -0.2989 -0.9181
vn 0.2694 -0.1538 -0.9507
vn 0.2841 -0.0000 -0.9588
vn 0.2998 0.1320 -0.9448
vn -0.2604 -0.2989 -0.9181
vn -0.1320 -0.2998 -0.9448
vn -0.0000 -0.2841 -0.9588
vn 0.1320 -0.2998 -0.9448
vn -0.2694 -0.1538 -0.9507
vn -0.1370 -0.1538 -0.9785
vn -0.0000 -0.1452 -0.9894
vn 0.1370 -0.1538 -0.9785
vn -0.2841 -0.0000 -0.9588
vn -0.1452 -0.0000 -0.9894
vn -0.0000 -0.0000 -1.0000
vn 0.1452 -0.0000 -0.9894
vn -0.2998 0.1320 -0.9448
vn -0.1538 0.1370 -0.9785
vn -0.0000 0.1452 -0.9894
vn 0.1538 0.1370 -0.9785
vn -0.2989 0.2604 -0.9181
vn -0.1538 0.2694 -0.9507
vn -0.0000 0.2841 -0.9588
vn 0.1538 0.2694 -0.9507
vn -0.4469 -0.3689 -0.8150
vn -0.4721 -0.1936 -0.8600
vn -0.4648 -0.0000 -0.8854
vn -0.4350 0.1541 -0.8872
vn -0.4469 -0.3689 0.8150
vn -0.1108 -0.2255 0.9679
vn -0.7995 -0.6006 -0.0000
vn -0.1108 -0.2255 -0.9679
vn -0.4721 -0.1936 0.8600
vn -0.1124 -0.1137 0.9871
vn -0.9372 -0.3488 -0.0000
vn -0.1124 -0.1137 -0.9871
vn -0.4648 -0.0000 0.8854
vn -0.1001 -0.0000 0.9950
vn -1.0000 -0.0000 -0.0000
vn -0.1001 -0.0000 -0.9950
vn -0.4350 0.1541 0.8872
vn -0.0817 0.0907 0.9925
vn -0.9372 0.3488 -0.0000
vn -0.0817 0.0907 -0.9925
vn -0.4118 0.2962 0.8618
vn -0.0737 0.1764 0.9815
vn -0.7995 0.6006 -0.0000
vn -0.0737 0.1764 -0.9815
vn -0.2604 -0.2989 0.9181
vn -0.2694 -0.1538 0.9507
vn -0.2841 -0.0000 0.9588
vn -0.2998 0.1320 0.9448
vn 0.2604 -0.2989 0.9181
vn 0.1320 -0.2998 0.9448
vn -0.0000 -0.2841 0.9588
vn -0.1320 -0.2998 0.9448
vn 0.2694 -0.1538 0.9507
vn 0.1370 -0.1538 0.9785
vn -0.0000 -0.1452 0.9894
vn -0.1370 -0.1538 0.9785
vn 0.2841 -0.0000 0.9588
vn 0.1452 -0.0000 0.9894
vn -0.0000 -0.0000 1.0000
vn -0.1452 -0.0000 0.9894
vn 0.2998 0.1320 0.9448
vn 0.1538 0.1370 0.9785
vn -0.0000 0.1452 0.9894
vn -0.1538 0.1370 0.9785
vn 0.2989 0.2604 0.9181
vn 0.1538 0.2694 0.9507
vn -0.0000 0.2841 0.9588
vn -0.1538 0.2694 0.9507
vn 0.4469 -0.3689 0.8150
vn 0.4721 -0.1936 0.8600
vn 0.4648 -0.0000 0.8854
vn 0.4350 0.1541 0.8872
vn 0.4469 -0.3689 -0.8150
vn 0.1108 -0.2255 -0.9679
vn 0.7995 -0.6006 -0.0000
vn 0.1108 -0.2255 0.9679
vn 0.4721 -0.1936 -0.8600
vn 0.1124 -0.1137 -0.9871
vn 0.9372 -0.3488 -0.0000
vn 0.1124 -0.1137 0.9871
vn 0.4648 -0.0000 -0.8854
vn 0.1001 -0.0000 -0.9950
vn 1.0000 -0.0000 -0.0000
vn 0.1001 -0.0000 0.9950
vn 0.4350 0.1541 -0.8872
vn 0.0817 0.0907 -0.9925
vn 0.9372 0.3488 -0.0000
vn 0.0817 0.0907 0.9925
vn 0.4118 0.2962 -0.8618
vn 0.0737 0.1764 -0.9815
vn 0.7995 0.6006 -0.0000
vn 0.0737 0.1764 0.9815
vn 0.4469 0.3689 0.8150
vn -0.2604 0.2989 0.9181
vn -0.4469 0.3689 -0.8150
vn 0.2604 0.2989 -0.9181
vn -0.3689 -0.4469 -0.8150
vn 0.3689 0.4469 -0.8150
vn -0.2962 0.4118 -0.8618
vn -0.1541 0.4350 -0.8872
vn 0.1936 0.4721 -0.8600
vn -0.2962 0.4118 0.8618
vn -0.1764 0.0737 0.9815
vn -0.1764 0.0737 -0.9815
vn -0.1541 0.4350 0.8872
vn -0.0907 0.0817 0.9925
vn -0.0907 0.0817 -0.9925
vn 0.1936 0.4721 0.8600
vn 0.1137 0.1124 0.9871
vn 0.1137 0.1124 -0.9871
vn 0.3689 0.4469 0.8150
vn 0.2255 0.1108 0.9679
vn 0.2255 0.1108 -0.9679
vn 0.2962 -0.4118 -0.8618
vn 0.1541 -0.4350 -0.8872
vn -0.1936 -0.4721 -0.8600
vn 0.2962 -0.4118 0.8618
vn 0.1764 -0.0737 0.9815
vn 0.1764 -0.0737 -0.9815
vn 0.1541 -0.4350 0.8872
vn 0.0907 -0.0817 0.9925
vn 0.0907 -0.0817 -0.9925
vn -0.1936 -0.4721 0.8600
vn -0.1137 -0.1124 0.9871
vn -0.1137 -0.1124 -0.9871
vn -0.3689 -0.4469 0.8150
vn -0.2255 -0.1108 0.9679
vn -0.2255 -0.1108 -0.9679
vn 0.2989 -0.2604 -0.9181
vn 0.2998 -0.1320 -0.9448
vn 0.2694 0.1538 -0.9507
vn -0.2989 -0.2604 -0.9181
vn -0.1538 -0.2694 -0.9507
vn 0.1538 -0.2694 -0.9507
vn -0.2998 -0.1320 -0.9448
vn -0.1538 -0.1370 -0.9785
vn 0.1538 -0.1370 -0.9785
vn -0.2694 0.1538 -0.9507
vn -0.1370 0.1538 -0.9785
vn 0.1370 0.1538 -0.9785
vn -0.2604 0.2989 -0.9181
vn -0.1320 0.2998 -0.9448
vn 0.1320 0.2998 -0.9448
vn -0.4118 -0.2962 -0.8618
vn -0.4350 -0.1541 -0.8872
vn -0.4721 0.1936 -0.8600
vn -0.4118 -0.2962 0.8618
vn -0.0737 -0.1764 0.9815
vn -0.0737 -0.1764 -0.9815
vn -0.4350 -0.1541 0.8872
vn -0.0817 -0.0907 0.9925
vn -0.0817 -0.0907 -0.9925
vn -0.4721 0.1936 0.8600
vn -0.1124 0.1137 0.9871
vn -0.1124 0.1137 -0.9871
vn -0.4469 0.3689 0.8150
vn -0.1108 0.2255 0.9679
vn -0.1108 0.2255 -0.9679
vn -0.2989 -0.2604 0.9181
vn -0.2998 -0.1320 0.9448
vn -0.2694 0.1538 0.9507
vn 0.2989 -0.2604 0.9181
vn 0.1538 -0.2694 0.9507
vn -0.1538 -0.2694 0.9507
vn 0.2998 -0.1320 0.9448
vn 0.1538 -0.1370 0.9785
vn -0.1538 -0.1370 0.9785
vn 0.2694 0.1538 0.9507
vn 0.1370 0.1538 0.9785
vn -0.1370 0.1538 0.9785
vn 0.2604 0.2989 0.9181
vn 0.1320 0.2998 0.9448
vn -0.1320 0.2998 0.9448
vn 0.4118 -0.2962 0.8618
vn 0.4350 -0.1541 0.8872
vn 0.4721 0.1936 0.8600
vn 0.4118 -0.2962 -0.8618
vn 0.0737 -0.1764 -0.9815
vn 0.0737 -0.1764 0.9815
vn 0.4350 -0.1541 -0.8872
vn 0.0817 -0.0907 -0.9925
vn 0.0817 -0.0907 0.9925
vn 0.4721 0.1936 -0.8600
vn 0.1124 0.1137 -0.9871
vn 0.1124 0.1137 0.9871
vn 0.4469 0.3689 -0.8150
vn 0.1108 0.2255 -0.9679
vn 0.1108 0.2255 0.9679
vt 0.575000 0.200000
vt 0.625000 0.250000
vt 0.575000 0.250000
vt 0.575000 0.450000
vt 0.625000 0.500000
vt 0.575000 0.500000
vt 0.575000 0.700000
vt 0.625000 0.750000
vt 0.575000 0.750000
vt 0.575000 0.950000
vt 0.625000 1.000000
vt 0.575000 1.000000
vt 0.325000 0.700000
vt 0.375000 0.750000
vt 0.325000 0.750000
vt 0.825000 0.700000
vt 0.875000 0.750000
vt 0.825000 0.750000
vt 0.675000 0.700000
vt 0.625000 0.700000
vt 0.725000 0.700000
vt 0.675000 0.750000
vt 0.775000 0.700000
vt 0.725000 0.750000
vt 0.775000 0.750000
vt 0.675000 0.550000
vt 0.625000 0.550000
vt 0.675000 0.600000
vt 0.625000 0.600000
vt 0.675000 0.650000
vt 0.625000 0.650000
vt 0.675000 0.500000
vt 0.725000 0.550000
vt 0.725000 0.600000
vt 0.725000 0.650000
vt 0.775000 0.500000
vt 0.725000 0.500000
vt 0.775000 0.550000
vt 0.775000 0.600000
vt 0.775000 0.650000
vt 0.825000 0.500000
vt 0.825000 0.550000
vt 0.825000 0.600000
vt 0.875000 0.500000
vt 0.875000 0.550000
vt 0.875000 0.650000
vt 0.825000 0.650000
vt 0.875000 0.700000
vt 0.175000 0.700000
vt 0.125000 0.750000
vt 0.125000 0.700000
vt 0.225000 0.700000
vt 0.175000 0.750000
vt 0.275000 0.700000
vt 0.225000 0.750000
vt 0.275000 0.750000
vt 0.125000 0.500000
vt 0.175000 0.550000
vt 0.125000 0.550000
vt 0.175000 0.600000
vt 0.125000 0.600000
vt 0.175000 0.650000
vt 0.125000 0.650000
vt 0.175000 0.500000
vt 0.225000 0.550000
vt 0.225000 0.600000
vt 0.225000 0.650000
vt 0.275000 0.500000
vt 0.225000 0.500000
vt 0.275000 0.550000
vt 0.275000 0.600000
vt 0.275000 0.650000
vt 0.325000 0.500000
vt 0.325000 0.550000
vt 0.325000 0.600000
vt 0.375000 0.500000
vt 0.375000 0.550000
vt 0.375000 0.650000
vt 0.325000 0.650000
vt 0.375000 0.700000
vt 0.425000 0.950000
vt 0.375000 1.000000
vt 0.375000 0.950000
vt 0.475000 0.950000
vt 0.425000 1.000000
vt 0.525000 0.950000
vt 0.475000 1.000000
vt 0.525000 1.000000
vt 0.425000 0.800000
vt 0.375000 0.800000
vt 0.425000 0.850000
vt 0.375000 0.850000
vt 0.375000 0.900000
vt 0.425000 0.900000
vt 0.425000 0.750000
vt 0.475000 0.800000
vt 0.475000 0.850000
vt 0.475000 0.900000
vt 0.525000 0.750000
vt 0.475000 0.750000
vt 0.525000 0.850000
vt 0.525000 0.900000
vt 0.525000 0.800000
vt 0.575000 0.800000
vt 0.575000 0.850000
vt 0.625000 0.800000
vt 0.625000 0.850000
vt 0.575000 0.900000
vt 0.625000 0.950000
vt 0.425000 0.700000
vt 0.475000 0.700000
vt 0.525000 0.700000
vt 0.425000 0.550000
vt 0.425000 0.600000
vt 0.375000 0.600000
vt 0.425000 0.650000
vt 0.425000 0.500000
vt 0.475000 0.550000
vt 0.475000 0.600000
vt 0.475000 0.650000
vt 0.525000 0.500000
vt 0.475000 0.500000
vt 0.525000 0.550000
vt 0.525000 0.600000
vt 0.525000 0.650000
vt 0.575000 0.550000
vt 0.575000 0.600000
vt 0.575000 0.650000
vt 0.425000 0.450000
vt 0.375000 0.450000
vt 0.475000 0.450000
vt 0.525000 0.450000
vt 0.375000 0.250000
vt 0.425000 0.300000
vt 0.375000 0.300000
vt 0.425000 0.350000
vt 0.375000 0.350000
vt 0.375000 0.400000
vt 0.425000 0.400000
vt 0.425000 0.250000
vt 0.475000 0.300000
vt 0.475000 0.350000
vt 0.475000 0.400000
vt 0.525000 0.250000
vt 0.475000 0.250000
vt 0.525000 0.350000
vt 0.525000 0.400000
vt 0.525000 0.300000
vt 0.575000 0.300000
vt 0.575000 0.350000
vt 0.625000 0.300000
vt 0.625000 0.350000
vt 0.575000 0.400000
vt 0.625000 0.450000
vt 0.425000 0.200000
vt 0.375000 0.200000
vt 0.475000 0.200000
vt 0.525000 0.200000
vt 0.375000 0.000000
vt 0.425000 0.050000
vt 0.375000 0.050000
vt 0.425000 0.100000
vt 0.375000 0.100000
vt 0.425000 0.150000
vt 0.375000 0.150000
vt 0.425000 0.000000
vt 0.475000 0.050000
vt 0.475000 0.100000
vt 0.475000 0.150000
vt 0.525000 0.000000
vt 0.475000 0.000000
vt 0.525000 0.050000
vt 0.525000 0.100000
vt 0.525000 0.150000
vt 0.575000 0.000000
vt 0.575000 0.050000
vt 0.575000 0.100000
vt 0.625000 0.000000
vt 0.625000 0.050000
vt 0.625000 0.100000
vt 0.575000 0.150000
vt 0.625000 0.200000
vt 0.875000 0.600000
vt 0.625000 0.900000
vt 0.625000 0.400000
vt 0.625000 0.150000
s 0
usemtl マテリアル
f 152/1/1 4/2/1 21/3/1
f 136/4/2 8/5/2 33/6/2
f 120/7/3 6/8/3 45/9/3
f 104/10/4 2/11/4 16/12/4
f 88/13/5 5/14/5 52/15/5
f 72/16/6 2/17/6 56/18/6
f 60/19/7 6/8/7 44/20/7
f 64/21/8 53/22/8 60/19/8
f 68/23/9 54/24/9 64/21/9
f 68/23/10 56/18/10 55/25/10
f 8/5/11 57/26/11 41/27/11
f 41/27/12 58/28/12 42/29/12
f 42/29/13 59/30/13 43/31/13
f 59/30/14 44/20/14 43/31/14
f 32/32/15 61/33/15 57/26/15
f 57/26/16 62/34/16 58/28/16
f 62/34/17 59/30/17 58/28/17
f 63/35/18 60/19/18 59/30/18
f 30/36/19 61/33/19 31/37/19
f 65/38/20 62/34/20 61/33/20
f 66/39/21 63/35/21 62/34/21
f 67/40/22 64/21/22 63/35/22
f 29/41/23 65/38/23 30/36/23
f 69/42/24 66/39/24 65/38/24
f 70/43/25 67/40/25 66/39/25
f 67/40/26 72/16/26 68/23/26
f 4/44/27 69/42/27 29/41/27
f 20/45/28 70/43/28 69/42/28
f 70/43/29 18/46/29 71/47/29
f 71/47/30 17/48/30 72/16/30
f 76/49/31 1/50/31 12/51/31
f 80/52/32 49/53/32 76/49/32
f 84/54/33 50/55/33 80/52/33
f 84/54/34 52/15/34 51/56/34
f 3/57/35 73/58/35 9/59/35
f 9/59/36 74/60/36 10/61/36
f 10/61/37 75/62/37 11/63/37
f 75/62/38 12/51/38 11/63/38
f 28/64/39 77/65/39 73/58/39
f 73/58/40 78/66/40 74/60/40
f 78/66/41 75/62/41 74/60/41
f 79/67/42 76/49/42 75/62/42
f 26/68/43 77/65/43 27/69/43
f 81/70/44 78/66/44 77/65/44
f 82/71/45 79/67/45 78/66/45
f 83/72/46 80/52/46 79/67/46
f 25/73/47 81/70/47 26/68/47
f 85/74/48 82/71/48 81/70/48
f 86/75/49 83/72/49 82/71/49
f 83/72/50 88/13/50 84/54/50
f 7/76/51 85/74/51 25/73/51
f 40/77/52 86/75/52 85/74/52
f 86/75/53 38/78/53 87/79/53
f 87/79/54 37/80/54 88/13/54
f 92/81/55 1/82/55 49/83/55
f 96/84/56 13/85/56 92/81/56
f 100/86/57 14/87/57 96/84/57
f 100/86/58 16/12/58 15/88/58
f 5/14/59 89/89/59 52/90/59
f 52/90/60 90/91/60 51/92/60
f 90/91/61 50/93/61 51/92/61
f 91/94/62 49/83/62 50/93/62
f 48/95/63 93/96/63 89/89/63
f 89/89/64 94/97/64 90/91/64
f 94/97/65 91/94/65 90/91/65
f 95/98/66 92/81/66 91/94/66
f 46/99/67 93/96/67 47/100/67
f 93/96/68 98/101/68 94/97/68
f 98/101/69 95/98/69 94/97/69
f 99/102/70 96/84/70 95/98/70
f 45/9/71 97/103/71 46/99/71
f 101/104/72 98/101/72 97/103/72
f 102/105/73 99/102/73 98/101/73
f 99/102/74 104/10/74 100/86/74
f 6/8/75 101/104/75 45/9/75
f 53/106/76 102/105/76 101/104/76
f 54/107/77 103/108/77 102/105/77
f 103/108/78 56/109/78 104/10/78
f 108/110/79 5/14/79 37/80/79
f 112/111/80 48/95/80 108/110/80
f 116/112/81 47/100/81 112/111/81
f 116/112/82 45/9/82 46/99/82
f 7/76/83 105/113/83 40/77/83
f 40/77/84 106/114/84 39/115/84
f 39/115/85 107/116/85 38/78/85
f 107/116/86 37/80/86 38/78/86
f 36/117/87 109/118/87 105/113/87
f 105/113/88 110/119/88 106/114/88
f 110/119/89 107/116/89 106/114/89
f 111/120/90 108/110/90 107/116/90
f 34/121/91 109/118/91 35/122/91
f 113/123/92 110/119/92 109/118/92
f 114/124/93 111/120/93 110/119/93
f 115/125/94 112/111/94 111/120/94
f 33/6/95 113/123/95 34/121/95
f 117/126/96 114/124/96 113/123/96
f 118/127/97 115/125/97 114/124/97
f 115/125/98 120/7/98 116/112/98
f 8/5/99 117/126/99 33/6/99
f 41/27/100 118/127/100 117/126/100
f 42/29/101 119/128/101 118/127/101
f 119/128/102 44/20/102 120/7/102
f 124/129/103 7/76/103 25/130/103
f 128/131/104 36/117/104 124/129/104
f 132/132/105 35/122/105 128/131/105
f 132/132/106 33/6/106 34/121/106
f 3/133/107 121/134/107 28/135/107
f 28/135/108 122/136/108 27/137/108
f 122/136/109 26/138/109 27/137/109
f 123/139/110 25/130/110 26/138/110
f 24/140/111 125/141/111 121/134/111
f 121/134/112 126/142/112 122/136/112
f 126/142/113 123/139/113 122/136/113
f 127/143/114 124/129/114 123/139/114
f 22/144/115 125/141/115 23/145/115
f 125/141/116 130/146/116 126/142/116
f 130/146/117 127/143/117 126/142/117
f 131/147/118 128/131/118 127/143/118
f 21/3/119 129/148/119 22/144/119
f 133/149/120 130/146/120 129/148/120
f 134/150/121 131/147/121 130/146/121
f 131/147/122 136/4/122 132/132/122
f 4/2/123 133/149/123 21/3/123
f 29/151/124 134/150/124 133/149/124
f 30/152/125 135/153/125 134/150/125
f 135/153/126 32/154/126 136/4/126
f 140/155/127 3/133/127 9/156/127
f 144/157/128 24/140/128 140/155/128
f 148/158/129 23/145/129 144/157/129
f 148/158/130 21/3/130 22/144/130
f 1/159/131 137/160/131 12/161/131
f 12/161/132 138/162/132 11/163/132
f 11/163/133 139/164/133 10/165/133
f 139/164/134 9/156/134 10/165/134
f 13/166/135 141/167/135 137/160/135
f 137/160/136 142/168/136 138/162/136
f 142/168/137 139/164/137 138/162/137
f 143/169/138 140/155/138 139/164/138
f 15/170/139 141/167/139 14/171/139
f 145/172/140 142/168/140 141/167/140
f 146/173/141 143/169/141 142/168/141
f 147/174/142 144/157/142 143/169/142
f 16/175/143 145/172/143 15/170/143
f 149/176/144 146/173/144 145/172/144
f 150/177/145 147/174/145 146/173/145
f 147/174/146 152/1/146 148/158/146
f 2/178/147 149/176/147 16/175/147
f 17/179/148 150/177/148 149/176/148
f 18/180/149 151/181/149 150/177/149
f 151/181/150 20/182/150 152/1/150
f 152/1/151 20/182/151 4/2/151
f 136/4/152 32/154/152 8/5/152
f 120/7/153 44/20/153 6/8/153
f 104/10/154 56/109/154 2/11/154
f 88/13/155 37/80/155 5/14/155
f 72/16/156 17/48/156 2/17/156
f 60/19/157 53/22/157 6/8/157
f 64/21/158 54/24/158 53/22/158
f 68/23/9 55/25/9 54/24/9
f 68/23/159 72/16/159 56/18/159
f 8/5/160 32/32/160 57/26/160
f 41/27/161 57/26/161 58/28/161
f 42/29/13 58/28/13 59/30/13
f 59/30/162 60/19/162 44/20/162
f 32/32/163 31/37/163 61/33/163
f 57/26/164 61/33/164 62/34/164
f 62/34/17 63/35/17 59/30/17
f 63/35/165 64/21/165 60/19/165
f 30/36/19 65/38/19 61/33/19
f 65/38/20 66/39/20 62/34/20
f 66/39/21 67/40/21 63/35/21
f 67/40/22 68/23/22 64/21/22
f 29/41/166 69/42/166 65/38/166
f 69/42/167 70/43/167 66/39/167
f 70/43/25 71/47/25 67/40/25
f 67/40/168 71/47/168 72/16/168
f 4/44/169 20/45/169 69/42/169
f 20/45/170 19/183/170 70/43/170
f 70/43/29 19/183/29 18/46/29
f 71/47/171 18/46/171 17/48/171
f 76/49/172 49/53/172 1/50/172
f 80/52/173 50/55/173 49/53/173
f 84/54/33 51/56/33 50/55/33
f 84/54/174 88/13/174 52/15/174
f 3/57/175 28/64/175 73/58/175
f 9/59/176 73/58/176 74/60/176
f 10/61/37 74/60/37 75/62/37
f 75/62/177 76/49/177 12/51/177
f 28/64/178 27/69/178 77/65/178
f 73/58/179 77/65/179 78/66/179
f 78/66/41 79/67/41 75/62/41
f 79/67/180 80/52/180 76/49/180
f 26/68/43 81/70/43 77/65/43
f 81/70/44 82/71/44 78/66/44
f 82/71/45 83/72/45 79/67/45
f 83/72/46 84/54/46 80/52/46
f 25/73/181 85/74/181 81/70/181
f 85/74/182 86/75/182 82/71/182
f 86/75/49 87/79/49 83/72/49
f 83/72/183 87/79/183 88/13/183
f 7/76/184 40/77/184 85/74/184
f 40/77/185 39/115/185 86/75/185
f 86/75/53 39/115/53 38/78/53
f 87/79/186 38/78/186 37/80/186
f 92/81/187 13/85/187 1/82/187
f 96/84/188 14/87/188 13/85/188
f 100/86/57 15/88/57 14/87/57
f 100/86/189 104/10/189 16/12/189
f 5/14/190 48/95/190 89/89/190
f 52/90/191 89/89/191 90/91/191
f 90/91/61 91/94/61 50/93/61
f 91/94/192 92/81/192 49/83/192
f 48/95/193 47/100/193 93/96/193
f 89/89/194 93/96/194 94/97/194
f 94/97/65 95/98/65 91/94/65
f 95/98/195 96/84/195 92/81/195
f 46/99/67 97/103/67 93/96/67
f 93/96/68 97/103/68 98/101/68
f 98/101/69 99/102/69 95/98/69
f 99/102/70 100/86/70 96/84/70
f 45/9/196 101/104/196 97/103/196
f 101/104/197 102/105/197 98/101/197
f 102/105/73 103/108/73 99/102/73
f 99/102/198 103/108/198 104/10/198
f 6/8/199 53/106/199 101/104/199
f 53/106/200 54/107/200 102/105/200
f 54/107/77 55/184/77 103/108/77
f 103/108/201 55/184/201 56/109/201
f 108/110/202 48/95/202 5/14/202
f 112/111/203 47/100/203 48/95/203
f 116/112/81 46/99/81 47/100/81
f 116/112/204 120/7/204 45/9/204
f 7/76/205 36/117/205 105/113/205
f 40/77/206 105/113/206 106/114/206
f 39/115/85 106/114/85 107/116/85
f 107/116/207 108/110/207 37/80/207
f 36/117/208 35/122/208 109/118/208
f 105/113/209 109/118/209 110/119/209
f 110/119/89 111/120/89 107/116/89
f 111/120/210 112/111/210 108/110/210
f 34/121/91 113/123/91 109/118/91
f 113/123/92 114/124/92 110/119/92
f 114/124/93 115/125/93 111/120/93
f 115/125/94 116/112/94 112/111/94
f 33/6/211 117/126/211 113/123/211
f 117/126/212 118/127/212 114/124/212
f 118/127/97 119/128/97 115/125/97
f 115/125/213 119/128/213 120/7/213
f 8/5/214 41/27/214 117/126/214
f 41/27/215 42/29/215 118/127/215
f 42/29/101 43/31/101 119/128/101
f 119/128/216 43/31/216 44/20/216
f 124/129/217 36/117/217 7/76/217
f 128/131/218 35/122/218 36/117/218
f 132/132/105 34/121/105 35/122/105
f 132/132/219 136/4/219 33/6/219
f 3/133/220 24/140/220 121/134/220
f 28/135/221 121/134/221 122/136/221
f 122/136/109 123/139/109 26/138/109
f 123/139/222 124/129/222 25/130/222
f 24/140/223 23/145/223 125/141/223
f 121/134/224 125/141/224 126/142/224
f 126/142/113 127/143/113 123/139/113
f 127/143/225 128/131/225 124/129/225
f 22/144/115 129/148/115 125/141/115
f 125/141/116 129/148/116 130/146/116
f 130/146/117 131/147/117 127/143/117
f 131/147/118 132/132/118 128/131/118
f 21/3/226 133/149/226 129/148/226
f 133/149/227 134/150/227 130/146/227
f 134/150/121 135/153/121 131/147/121
f 131/147/228 135/153/228 136/4/228
f 4/2/229 29/151/229 133/149/229
f 29/151/230 30/152/230 134/150/230
f 30/152/125 31/185/125 135/153/125
f 135/153/231 31/185/231 32/154/231
f 140/155/232 24/140/232 3/133/232
f 144/157/233 23/145/233 24/140/233
f 148/158/129 22/144/129 23/145/129
f 148/158/234 152/1/234 21/3/234
f 1/159/235 13/166/235 137/160/235
f 12/161/236 137/160/236 138/162/236
f 11/163/133 138/162/133 139/164/133
f 139/164/237 140/155/237 9/156/237
f 13/166/238 14/171/238 141/167/238
f 137/160/239 141/167/239 142/168/239
f 142/168/137 143/169/137 139/164/137
f 143/169/240 144/157/240 140/155/240
f 15/170/139 145/172/139 141/167/139
f 145/172/140 146/173/140 142/168/140
f 146/173/141 147/174/141 143/169/141
f 147/174/142 148/158/142 144/157/142
f 16/175/241 149/176/241 145/172/241
f 149/176/242 150/177/242 146/173/242
f 150/177/145 151/181/145 147/174/145
f 147/174/243 151/181/243 152/1/243
f 2/178/244 17/179/244 149/176/244
f 17/179/245 18/180/245 150/177/245
f 18/180/149 19/186/149 151/181/149
f 151/181/246 19/186/246 20/182/246
