# Blender 4.0.2
# www.blender.org
mtllib coin.mtl
o 立方体
v -0.250323 -0.250323 0.098724
v -0.250323 0.250323 0.098724
v -0.250323 -0.250323 -0.098724
v -0.250323 0.250323 -0.098724
v 0.250323 -0.250323 0.098724
v 0.250323 0.250323 0.098724
v 0.250323 -0.250323 -0.098724
v 0.250323 0.250323 -0.098724
v -0.282232 -0.282232 -0.066785
v -0.303562 -0.303562 -0.059374
v -0.303562 -0.303562 0.059374
v -0.282232 -0.282232 0.066785
v -0.282232 -0.169339 0.111309
v -0.303562 -0.060712 0.119721
v -0.303562 0.060712 0.119721
v -0.282232 0.169339 0.111309
v -0.282232 0.282232 0.066785
v -0.303562 0.303562 0.059374
v -0.303562 0.303562 -0.059374
v -0.282232 0.282232 -0.066785
v -0.282232 0.169339 -0.111309
v -0.303562 0.060712 -0.119721
v -0.303562 -0.060712 -0.119721
v -0.282232 -0.169339 -0.111309
v 0.169339 -0.282232 -0.111309
v 0.060712 -0.303562 -0.119721
v -0.060712 -0.303562 -0.119721
v -0.169339 -0.282232 -0.111309
v -0.169339 0.282232 -0.111309
v -0.060712 0.303562 -0.119721
v 0.060712 0.303562 -0.119721
v 0.169339 0.282232 -0.111309
v 0.282232 0.169339 -0.111309
v 0.303562 0.060712 -0.119721
v 0.303562 -0.060712 -0.119721
v 0.282232 -0.169339 -0.111309
v 0.282232 -0.282232 0.066785
v 0.303562 -0.303562 0.059374
v 0.303562 -0.303562 -0.059374
v 0.282232 -0.282232 -0.066785
v 0.282232 0.282232 -0.066785
v 0.303562 0.303562 -0.059374
v 0.303562 0.303562 0.059374
v 0.282232 0.282232 0.066785
v 0.282232 0.169339 0.111309
v 0.303562 0.060712 0.119721
v 0.303562 -0.060712 0.119721
v 0.282232 -0.169339 0.111309
v -0.169339 -0.282232 0.111309
v -0.060712 -0.303562 0.119721
v 0.060712 -0.303562 0.119721
v 0.169339 -0.282232 0.111309
v 0.169339 0.282232 0.111309
v 0.060712 0.303562 0.119721
v -0.060712 0.303562 0.119721
v -0.169339 0.282232 0.111309
v 0.198357 0.330596 -0.078230
v 0.219861 0.366436 -0.071672
v 0.219861 0.366436 0.071672
v 0.198357 0.330596 0.078230
v 0.073287 0.366436 -0.086711
v 0.083441 0.417205 -0.081602
v 0.083441 0.417205 0.081602
v 0.073287 0.366436 0.086711
v -0.073287 0.366436 -0.086711
v -0.083441 0.417205 -0.081602
v -0.083441 0.417205 0.081602
v -0.073287 0.366436 0.086711
v -0.198357 0.330596 -0.078230
v -0.219861 0.366436 -0.071672
v -0.219861 0.366436 0.071672
v -0.198357 0.330596 0.078230
v -0.198357 -0.330596 -0.078230
v -0.219861 -0.366436 -0.071672
v -0.219861 -0.366436 0.071672
v -0.198357 -0.330596 0.078230
v -0.073287 -0.366436 -0.086711
v -0.083441 -0.417205 -0.081602
v -0.083441 -0.417205 0.081602
v -0.073287 -0.366436 0.086711
v 0.073287 -0.366436 -0.086711
v 0.083441 -0.417205 -0.081602
v 0.083441 -0.417205 0.081602
v 0.073287 -0.366436 0.086711
v 0.198357 -0.330596 -0.078230
v 0.219861 -0.366436 -0.071672
v 0.219861 -0.366436 0.071672
v 0.198357 -0.330596 0.078230
v 0.198357 -0.198357 0.130383
v 0.073287 -0.219861 0.144518
v -0.073287 -0.219861 0.144518
v -0.198357 -0.198357 0.130383
v 0.219861 -0.073287 0.144518
v 0.083441 -0.083441 0.164541
v -0.083441 -0.083441 0.164541
v -0.219861 -0.073287 0.144518
v 0.219861 0.073287 0.144518
v 0.083441 0.083441 0.164541
v -0.083441 0.083441 0.164541
v -0.219861 0.073287 0.144518
v 0.198357 0.198357 0.130383
v 0.073287 0.219861 0.144518
v -0.073287 0.219861 0.144518
v -0.198357 0.198357 0.130383
v 0.330596 -0.198357 -0.078230
v 0.366436 -0.219861 -0.071672
v 0.366436 -0.219861 0.071672
v 0.330596 -0.198357 0.078230
v 0.366436 -0.073287 -0.086711
v 0.417205 -0.083441 -0.081602
v 0.417205 -0.083441 0.081602
v 0.366436 -0.073287 0.086711
v 0.366436 0.073287 -0.086711
v 0.417205 0.083441 -0.081602
v 0.417205 0.083441 0.081602
v 0.366436 0.073287 0.086711
v 0.330596 0.198357 -0.078230
v 0.366436 0.219861 -0.071672
v 0.366436 0.219861 0.071672
v 0.330596 0.198357 0.078230
v -0.198357 -0.198357 -0.130383
v -0.073287 -0.219861 -0.144518
v 0.073287 -0.219861 -0.144518
v 0.198357 -0.198357 -0.130383
v -0.219861 -0.073287 -0.144518
v -0.083441 -0.083441 -0.164541
v 0.083441 -0.083441 -0.164541
v 0.219861 -0.073287 -0.144518
v -0.219861 0.073287 -0.144518
v -0.083441 0.083441 -0.164541
v 0.083441 0.083441 -0.164541
v 0.219861 0.073287 -0.144518
v -0.198357 0.198357 -0.130383
v -0.073287 0.219861 -0.144518
v 0.073287 0.219861 -0.144518
v 0.198357 0.198357 -0.130383
v -0.330596 -0.198357 0.078230
v -0.366436 -0.219861 0.071672
v -0.366436 -0.219861 -0.071672
v -0.330596 -0.198357 -0.078230
v -0.366436 -0.073287 0.086711
v -0.417205 -0.083441 0.081602
v -0.417205 -0.083441 -0.081602
v -0.366436 -0.073287 -0.086711
v -0.366436 0.073287 0.086711
v -0.417205 0.083441 0.081602
v -0.417205 0.083441 -0.081602
v -0.366436 0.073287 -0.086711
v -0.330596 0.198357 0.078230
v -0.366436 0.219861 0.071672
v -0.366436 0.219861 -0.071672
v -0.330596 0.198357 -0.078230
vn -0.4466 0.2655 -0.8544
vn -0.3510 0.3510 -0.8681
vn -0.3689 0.2074 -0.9060
vn 0.2159 0.2159 -0.9522
vn 0.3510 0.3510 -0.8681
vn 0.3689 0.2074 -0.9060
vn 0.4466 0.2655 0.8544
vn 0.3510 0.3510 0.8681
vn 0.3689 0.2074 0.9060
vn -0.2159 0.2159 0.9522
vn -0.3510 0.3510 0.8681
vn -0.3689 0.2074 0.9060
vn 0.2655 -0.4466 0.8544
vn 0.3510 -0.3510 0.8681
vn 0.2074 -0.3689 0.9060
vn -0.2655 0.4466 0.8544
vn -0.2074 0.3689 0.9060
vn 0.2655 0.4466 0.8544
vn 0.4085 0.4085 0.8162
vn 0.0878 0.4574 0.8849
vn 0.2074 0.3689 0.9060
vn -0.0878 0.4574 0.8849
vn 0.0649 0.3771 0.9239
vn -0.0649 0.3771 0.9239
vn 0.2655 0.4466 -0.8544
vn 0.4085 0.4085 -0.8162
vn 0.2255 0.1108 -0.9679
vn 0.6006 0.7995 -0.0000
vn 0.2255 0.1108 0.9679
vn 0.2074 0.3689 -0.9060
vn 0.0878 0.4574 -0.8849
vn 0.1137 0.1124 -0.9871
vn 0.3488 0.9372 -0.0000
vn 0.1137 0.1124 0.9871
vn -0.0649 0.3771 -0.9239
vn 0.0649 0.3771 -0.9239
vn -0.0000 0.1001 -0.9950
vn -0.0000 1.0000 -0.0000
vn -0.0000 0.1001 0.9950
vn -0.2074 0.3689 -0.9060
vn -0.0878 0.4574 -0.8849
vn -0.0907 0.0817 -0.9925
vn -0.3488 0.9372 -0.0000
vn -0.0907 0.0817 0.9925
vn -0.2655 0.4466 -0.8544
vn -0.1764 0.0737 -0.9815
vn -0.6006 0.7995 -0.0000
vn -0.1764 0.0737 0.9815
vn -0.2655 -0.4466 0.8544
vn -0.3510 -0.3510 0.8681
vn -0.4085 -0.4085 0.8162
vn -0.0878 -0.4574 0.8849
vn -0.2074 -0.3689 0.9060
vn 0.0878 -0.4574 0.8849
vn -0.0649 -0.3771 0.9239
vn 0.0649 -0.3771 0.9239
vn -0.3510 -0.3510 -0.8681
vn -0.2655 -0.4466 -0.8544
vn -0.4085 -0.4085 -0.8162
vn -0.2255 -0.1108 -0.9679
vn -0.6006 -0.7995 -0.0000
vn -0.2255 -0.1108 0.9679
vn -0.2074 -0.3689 -0.9060
vn -0.0878 -0.4574 -0.8849
vn -0.1137 -0.1124 -0.9871
vn -0.3488 -0.9372 -0.0000
vn -0.1137 -0.1124 0.9871
vn 0.0649 -0.3771 -0.9239
vn -0.0649 -0.3771 -0.9239
vn -0.0000 -0.1001 -0.9950
vn -0.0000 -1.0000 -0.0000
vn -0.0000 -0.1001 0.9950
vn 0.2074 -0.3689 -0.9060
vn 0.0878 -0.4574 -0.8849
vn 0.0907 -0.0817 -0.9925
vn 0.3488 -0.9372 -0.0000
vn 0.0907 -0.0817 0.9925
vn 0.3510 -0.3510 -0.8681
vn 0.2655 -0.4466 -0.8544
vn 0.1764 -0.0737 -0.9815
vn 0.6006 -0.7995 -0.0000
vn 0.1764 -0.0737 0.9815
vn -0.2159 -0.2159 0.9522
vn -0.2217 -0.0713 0.9725
vn -0.3689 -0.2074 0.9060
vn -0.2217 0.0713 0.9725
vn -0.3771 -0.0649 0.9239
vn -0.3771 0.0649 0.9239
vn 0.2159 -0.2159 0.9522
vn 0.0713 -0.2217 0.9725
vn -0.0713 -0.2217 0.9725
vn 0.3689 -0.2074 0.9060
vn 0.2217 -0.0713 0.9725
vn 0.0745 -0.0745 0.9944
vn -0.0745 -0.0745 0.9944
vn 0.3771 0.0649 0.9239
vn 0.3771 -0.0649 0.9239
vn 0.0745 0.0745 0.9944
vn -0.0745 0.0745 0.9944
vn 0.2217 0.0713 0.9725
vn 0.2159 0.2159 0.9522
vn 0.0713 0.2217 0.9725
vn -0.0713 0.2217 0.9725
vn 0.4466 -0.2655 0.8544
vn 0.4085 -0.4085 0.8162
vn 0.4574 -0.0878 0.8849
vn 0.4574 0.0878 0.8849
vn 0.4466 -0.2655 -0.8544
vn 0.4085 -0.4085 -0.8162
vn 0.1108 -0.2255 -0.9679
vn 0.7995 -0.6006 -0.0000
vn 0.1108 -0.2255 0.9679
vn 0.3689 -0.2074 -0.9060
vn 0.4574 -0.0878 -0.8849
vn 0.1124 -0.1137 -0.9871
vn 0.9372 -0.3488 -0.0000
vn 0.1124 -0.1137 0.9871
vn 0.3771 0.0649 -0.9239
vn 0.3771 -0.0649 -0.9239
vn 0.1001 -0.0000 -0.9950
vn 1.0000 -0.0000 -0.0000
vn 0.1001 -0.0000 0.9950
vn 0.4574 0.0878 -0.8849
vn 0.0817 0.0907 -0.9925
vn 0.9372 0.3488 -0.0000
vn 0.0817 0.0907 0.9925
vn 0.4466 0.2655 -0.8544
vn 0.0737 0.1764 -0.9815
vn 0.7995 0.6006 -0.0000
vn 0.0737 0.1764 0.9815
vn 0.2159 -0.2159 -0.9522
vn 0.2217 -0.0713 -0.9725
vn 0.2217 0.0713 -0.9725
vn -0.2159 -0.2159 -0.9522
vn -0.0713 -0.2217 -0.9725
vn 0.0713 -0.2217 -0.9725
vn -0.3689 -0.2074 -0.9060
vn -0.2217 -0.0713 -0.9725
vn -0.0745 -0.0745 -0.9944
vn 0.0745 -0.0745 -0.9944
vn -0.3771 0.0649 -0.9239
vn -0.3771 -0.0649 -0.9239
vn -0.0745 0.0745 -0.9944
vn 0.0745 0.0745 -0.9944
vn -0.2217 0.0713 -0.9725
vn -0.2159 0.2159 -0.9522
vn -0.0713 0.2217 -0.9725
vn 0.0713 0.2217 -0.9725
vn -0.4466 -0.2655 -0.8544
vn -0.4574 -0.0878 -0.8849
vn -0.4574 0.0878 -0.8849
vn -0.4466 -0.2655 0.8544
vn -0.1108 -0.2255 0.9679
vn -0.7995 -0.6006 -0.0000
vn -0.1108 -0.2255 -0.9679
vn -0.4574 -0.0878 0.8849
vn -0.1124 -0.1137 0.9871
vn -0.9372 -0.3488 -0.0000
vn -0.1124 -0.1137 -0.9871
vn -0.1001 -0.0000 0.9950
vn -1.0000 -0.0000 -0.0000
vn -0.1001 -0.0000 -0.9950
vn -0.4574 0.0878 0.8849
vn -0.0817 0.0907 0.9925
vn -0.9372 0.3488 -0.0000
vn -0.0817 0.0907 -0.9925
vn -0.4466 0.2655 0.8544
vn -0.0737 0.1764 0.9815
vn -0.7995 0.6006 -0.0000
vn -0.0737 0.1764 -0.9815
vn -0.4085 0.4085 -0.8162
vn -0.4085 0.4085 0.8162
vn 0.1764 0.0737 -0.9815
vn 0.1764 0.0737 0.9815
vn 0.0907 0.0817 -0.9925
vn 0.0907 0.0817 0.9925
vn -0.1137 0.1124 -0.9871
vn -0.1137 0.1124 0.9871
vn -0.2255 0.1108 -0.9679
vn -0.2255 0.1108 0.9679
vn -0.1764 -0.0737 -0.9815
vn -0.1764 -0.0737 0.9815
vn -0.0907 -0.0817 -0.9925
vn -0.0907 -0.0817 0.9925
vn 0.1137 -0.1124 -0.9871
vn 0.1137 -0.1124 0.9871
vn 0.2255 -0.1108 -0.9679
vn 0.2255 -0.1108 0.9679
vn 0.0737 -0.1764 -0.9815
vn 0.0737 -0.1764 0.9815
vn 0.0817 -0.0907 -0.9925
vn 0.0817 -0.0907 0.9925
vn 0.1124 0.1137 -0.9871
vn 0.1124 0.1137 0.9871
vn 0.1108 0.2255 -0.9679
vn 0.1108 0.2255 0.9679
vn -0.0737 -0.1764 0.9815
vn -0.0737 -0.1764 -0.9815
vn -0.0817 -0.0907 0.9925
vn -0.0817 -0.0907 -0.9925
vn -0.1124 0.1137 0.9871
vn -0.1124 0.1137 -0.9871
vn -0.1108 0.2255 0.9679
vn -0.1108 0.2255 -0.9679
vt 0.575000 0.200000
vt 0.625000 0.250000
vt 0.575000 0.250000
vt 0.575000 0.450000
vt 0.625000 0.500000
vt 0.575000 0.500000
vt 0.575000 0.700000
vt 0.625000 0.750000
vt 0.575000 0.750000
vt 0.575000 0.950000
vt 0.625000 1.000000
vt 0.575000 1.000000
vt 0.325000 0.700000
vt 0.375000 0.750000
vt 0.325000 0.750000
vt 0.825000 0.700000
vt 0.875000 0.750000
vt 0.825000 0.750000
vt 0.675000 0.700000
vt 0.625000 0.700000
vt 0.725000 0.700000
vt 0.675000 0.750000
vt 0.775000 0.700000
vt 0.725000 0.750000
vt 0.775000 0.750000
vt 0.675000 0.550000
vt 0.625000 0.550000
vt 0.675000 0.600000
vt 0.625000 0.600000
vt 0.675000 0.650000
vt 0.625000 0.650000
vt 0.675000 0.500000
vt 0.725000 0.550000
vt 0.725000 0.600000
vt 0.725000 0.650000
vt 0.775000 0.500000
vt 0.725000 0.500000
vt 0.775000 0.550000
vt 0.775000 0.600000
vt 0.775000 0.650000
vt 0.825000 0.500000
vt 0.825000 0.550000
vt 0.825000 0.600000
vt 0.875000 0.500000
vt 0.875000 0.550000
vt 0.875000 0.650000
vt 0.825000 0.650000
vt 0.875000 0.700000
vt 0.175000 0.700000
vt 0.125000 0.750000
vt 0.125000 0.700000
vt 0.225000 0.700000
vt 0.175000 0.750000
vt 0.275000 0.700000
vt 0.225000 0.750000
vt 0.275000 0.750000
vt 0.125000 0.500000
vt 0.175000 0.550000
vt 0.125000 0.550000
vt 0.175000 0.600000
vt 0.125000 0.600000
vt 0.175000 0.650000
vt 0.125000 0.650000
vt 0.175000 0.500000
vt 0.225000 0.550000
vt 0.225000 0.600000
vt 0.225000 0.650000
vt 0.275000 0.500000
vt 0.225000 0.500000
vt 0.275000 0.550000
vt 0.275000 0.600000
vt 0.275000 0.650000
vt 0.325000 0.500000
vt 0.325000 0.550000
vt 0.325000 0.600000
vt 0.375000 0.500000
vt 0.375000 0.550000
vt 0.375000 0.650000
vt 0.325000 0.650000
vt 0.375000 0.700000
vt 0.425000 0.950000
vt 0.375000 1.000000
vt 0.375000 0.950000
vt 0.475000 0.950000
vt 0.425000 1.000000
vt 0.525000 0.950000
vt 0.475000 1.000000
vt 0.525000 1.000000
vt 0.425000 0.800000
vt 0.375000 0.800000
vt 0.425000 0.850000
vt 0.375000 0.850000
vt 0.375000 0.900000
vt 0.425000 0.900000
vt 0.425000 0.750000
vt 0.475000 0.800000
vt 0.475000 0.850000
vt 0.475000 0.900000
vt 0.525000 0.750000
vt 0.475000 0.750000
vt 0.525000 0.850000
vt 0.525000 0.900000
vt 0.525000 0.800000
vt 0.575000 0.800000
vt 0.575000 0.850000
vt 0.625000 0.800000
vt 0.625000 0.850000
vt 0.575000 0.900000
vt 0.625000 0.950000
vt 0.425000 0.700000
vt 0.475000 0.700000
vt 0.525000 0.700000
vt 0.425000 0.550000
vt 0.425000 0.600000
vt 0.375000 0.600000
vt 0.425000 0.650000
vt 0.425000 0.500000
vt 0.475000 0.550000
vt 0.475000 0.600000
vt 0.475000 0.650000
vt 0.525000 0.500000
vt 0.475000 0.500000
vt 0.525000 0.550000
vt 0.525000 0.600000
vt 0.525000 0.650000
vt 0.575000 0.550000
vt 0.575000 0.600000
vt 0.575000 0.650000
vt 0.425000 0.450000
vt 0.375000 0.450000
vt 0.475000 0.450000
vt 0.525000 0.450000
vt 0.375000 0.250000
vt 0.425000 0.300000
vt 0.375000 0.300000
vt 0.425000 0.350000
vt 0.375000 0.350000
vt 0.375000 0.400000
vt 0.425000 0.400000
vt 0.425000 0.250000
vt 0.475000 0.300000
vt 0.475000 0.350000
vt 0.475000 0.400000
vt 0.525000 0.250000
vt 0.475000 0.250000
vt 0.525000 0.350000
vt 0.525000 0.400000
vt 0.525000 0.300000
vt 0.575000 0.300000
vt 0.575000 0.350000
vt 0.625000 0.300000
vt 0.625000 0.350000
vt 0.575000 0.400000
vt 0.625000 0.450000
vt 0.425000 0.200000
vt 0.375000 0.200000
vt 0.475000 0.200000
vt 0.525000 0.200000
vt 0.375000 0.000000
vt 0.425000 0.050000
vt 0.375000 0.050000
vt 0.425000 0.100000
vt 0.375000 0.100000
vt 0.425000 0.150000
vt 0.375000 0.150000
vt 0.425000 0.000000
vt 0.475000 0.050000
vt 0.475000 0.100000
vt 0.475000 0.150000
vt 0.525000 0.000000
vt 0.475000 0.000000
vt 0.525000 0.050000
vt 0.525000 0.100000
vt 0.525000 0.150000
vt 0.575000 0.000000
vt 0.575000 0.050000
vt 0.575000 0.100000
vt 0.625000 0.000000
vt 0.625000 0.050000
vt 0.625000 0.100000
vt 0.575000 0.150000
vt 0.625000 0.200000
vt 0.875000 0.600000
vt 0.625000 0.900000
vt 0.625000 0.400000
vt 0.625000 0.150000
s 1
usemtl マテリアル
f 152/1/1 4/2/2 21/3/3
f 136/4/4 8/5/5 33/6/6
f 120/7/7 6/8/8 45/9/9
f 104/10/10 2/11/11 16/12/12
f 88/13/13 5/14/14 52/15/15
f 72/16/16 2/17/11 56/18/17
f 60/19/18 6/8/8 44/20/19
f 64/21/20 53/22/21 60/19/18
f 68/23/22 54/24/23 64/21/20
f 68/23/22 56/18/17 55/25/24
f 8/5/5 57/26/25 41/27/26
s 0
f 41/27/27 58/28/27 42/29/27
f 42/29/28 59/30/28 43/31/28
f 59/30/29 44/20/29 43/31/29
s 1
f 32/32/30 61/33/31 57/26/25
s 0
f 57/26/32 62/34/32 58/28/32
f 62/34/33 59/30/33 58/28/33
f 63/35/34 60/19/34 59/30/34
s 1
f 30/36/35 61/33/31 31/37/36
s 0
f 65/38/37 62/34/37 61/33/37
f 66/39/38 63/35/38 62/34/38
f 67/40/39 64/21/39 63/35/39
s 1
f 29/41/40 65/38/41 30/36/35
s 0
f 69/42/42 66/39/42 65/38/42
f 70/43/43 67/40/43 66/39/43
f 67/40/44 72/16/44 68/23/44
s 1
f 4/44/2 69/42/45 29/41/40
s 0
f 20/45/46 70/43/46 69/42/46
f 70/43/47 18/46/47 71/47/47
f 71/47/48 17/48/48 72/16/48
s 1
f 76/49/49 1/50/50 12/51/51
f 80/52/52 49/53/53 76/49/49
f 84/54/54 50/55/55 80/52/52
f 84/54/54 52/15/15 51/56/56
f 3/57/57 73/58/58 9/59/59
s 0
f 9/59/60 74/60/60 10/61/60
f 10/61/61 75/62/61 11/63/61
f 75/62/62 12/51/62 11/63/62
s 1
f 28/64/63 77/65/64 73/58/58
s 0
f 73/58/65 78/66/65 74/60/65
f 78/66/66 75/62/66 74/60/66
f 79/67/67 76/49/67 75/62/67
s 1
f 26/68/68 77/65/64 27/69/69
s 0
f 81/70/70 78/66/70 77/65/70
f 82/71/71 79/67/71 78/66/71
f 83/72/72 80/52/72 79/67/72
s 1
f 25/73/73 81/70/74 26/68/68
s 0
f 85/74/75 82/71/75 81/70/75
f 86/75/76 83/72/76 82/71/76
f 83/72/77 88/13/77 84/54/77
s 1
f 7/76/78 85/74/79 25/73/73
s 0
f 40/77/80 86/75/80 85/74/80
f 86/75/81 38/78/81 87/79/81
f 87/79/82 37/80/82 88/13/82
s 1
f 92/81/83 1/82/50 49/83/53
f 96/84/84 13/85/85 92/81/83
f 100/86/86 14/87/87 96/84/84
f 100/86/86 16/12/12 15/88/88
f 5/14/14 89/89/89 52/90/15
f 52/90/15 90/91/90 51/92/56
f 90/91/90 50/93/55 51/92/56
f 91/94/91 49/83/53 50/93/55
f 48/95/92 93/96/93 89/89/89
f 89/89/89 94/97/94 90/91/90
f 94/97/94 91/94/91 90/91/90
f 95/98/95 92/81/83 91/94/91
f 46/99/96 93/96/93 47/100/97
f 93/96/93 98/101/98 94/97/94
f 98/101/98 95/98/95 94/97/94
f 99/102/99 96/84/84 95/98/95
f 45/9/9 97/103/100 46/99/96
f 101/104/101 98/101/98 97/103/100
f 102/105/102 99/102/99 98/101/98
f 99/102/99 104/10/10 100/86/86
f 6/8/8 101/104/101 45/9/9
f 53/106/21 102/105/102 101/104/101
f 54/107/23 103/108/103 102/105/102
f 103/108/103 56/109/17 104/10/10
f 108/110/104 5/14/14 37/80/105
f 112/111/106 48/95/92 108/110/104
f 116/112/107 47/100/97 112/111/106
f 116/112/107 45/9/9 46/99/96
f 7/76/78 105/113/108 40/77/109
s 0
f 40/77/110 106/114/110 39/115/110
f 39/115/111 107/116/111 38/78/111
f 107/116/112 37/80/112 38/78/112
s 1
f 36/117/113 109/118/114 105/113/108
s 0
f 105/113/115 110/119/115 106/114/115
f 110/119/116 107/116/116 106/114/116
f 111/120/117 108/110/117 107/116/117
s 1
f 34/121/118 109/118/114 35/122/119
s 0
f 113/123/120 110/119/120 109/118/120
f 114/124/121 111/120/121 110/119/121
f 115/125/122 112/111/122 111/120/122
s 1
f 33/6/6 113/123/123 34/121/118
s 0
f 117/126/124 114/124/124 113/123/124
f 118/127/125 115/125/125 114/124/125
f 115/125/126 120/7/126 116/112/126
s 1
f 8/5/5 117/126/127 33/6/6
s 0
f 41/27/128 118/127/128 117/126/128
f 42/29/129 119/128/129 118/127/129
f 119/128/130 44/20/130 120/7/130
s 1
f 124/129/131 7/76/78 25/130/73
f 128/131/132 36/117/113 124/129/131
f 132/132/133 35/122/119 128/131/132
f 132/132/133 33/6/6 34/121/118
f 3/133/57 121/134/134 28/135/63
f 28/135/63 122/136/135 27/137/69
f 122/136/135 26/138/68 27/137/69
f 123/139/136 25/130/73 26/138/68
f 24/140/137 125/141/138 121/134/134
f 121/134/134 126/142/139 122/136/135
f 126/142/139 123/139/136 122/136/135
f 127/143/140 124/129/131 123/139/136
f 22/144/141 125/141/138 23/145/142
f 125/141/138 130/146/143 126/142/139
f 130/146/143 127/143/140 126/142/139
f 131/147/144 128/131/132 127/143/140
f 21/3/3 129/148/145 22/144/141
f 133/149/146 130/146/143 129/148/145
f 134/150/147 131/147/144 130/146/143
f 131/147/144 136/4/4 132/132/133
f 4/2/2 133/149/146 21/3/3
f 29/151/40 134/150/147 133/149/146
f 30/152/35 135/153/148 134/150/147
f 135/153/148 32/154/30 136/4/4
f 140/155/149 3/133/57 9/156/59
f 144/157/150 24/140/137 140/155/149
f 148/158/151 23/145/142 144/157/150
f 148/158/151 21/3/3 22/144/141
f 1/159/50 137/160/152 12/161/51
s 0
f 12/161/153 138/162/153 11/163/153
f 11/163/154 139/164/154 10/165/154
f 139/164/155 9/156/155 10/165/155
s 1
f 13/166/85 141/167/156 137/160/152
s 0
f 137/160/157 142/168/157 138/162/157
f 142/168/158 139/164/158 138/162/158
f 143/169/159 140/155/159 139/164/159
s 1
f 15/170/88 141/167/156 14/171/87
s 0
f 145/172/160 142/168/160 141/167/160
f 146/173/161 143/169/161 142/168/161
f 147/174/162 144/157/162 143/169/162
s 1
f 16/175/12 145/172/163 15/170/88
s 0
f 149/176/164 146/173/164 145/172/164
f 150/177/165 147/174/165 146/173/165
f 147/174/166 152/1/166 148/158/166
s 1
f 2/178/11 149/176/167 16/175/12
s 0
f 17/179/168 150/177/168 149/176/168
f 18/180/169 151/181/169 150/177/169
f 151/181/170 20/182/170 152/1/170
s 1
f 152/1/1 20/182/171 4/2/2
f 136/4/4 32/154/30 8/5/5
f 120/7/7 44/20/19 6/8/8
f 104/10/10 56/109/17 2/11/11
f 88/13/13 37/80/105 5/14/14
f 72/16/16 17/48/172 2/17/11
f 60/19/18 53/22/21 6/8/8
f 64/21/20 54/24/23 53/22/21
f 68/23/22 55/25/24 54/24/23
f 68/23/22 72/16/16 56/18/17
f 8/5/5 32/32/30 57/26/25
s 0
f 41/27/173 57/26/173 58/28/173
f 42/29/28 58/28/28 59/30/28
f 59/30/174 60/19/174 44/20/174
s 1
f 32/32/30 31/37/36 61/33/31
s 0
f 57/26/175 61/33/175 62/34/175
f 62/34/33 63/35/33 59/30/33
f 63/35/176 64/21/176 60/19/176
s 1
f 30/36/35 65/38/41 61/33/31
s 0
f 65/38/37 66/39/37 62/34/37
f 66/39/38 67/40/38 63/35/38
f 67/40/39 68/23/39 64/21/39
s 1
f 29/41/40 69/42/45 65/38/41
s 0
f 69/42/177 70/43/177 66/39/177
f 70/43/43 71/47/43 67/40/43
f 67/40/178 71/47/178 72/16/178
s 1
f 4/44/2 20/45/171 69/42/45
s 0
f 20/45/179 19/183/179 70/43/179
f 70/43/47 19/183/47 18/46/47
f 71/47/180 18/46/180 17/48/180
s 1
f 76/49/49 49/53/53 1/50/50
f 80/52/52 50/55/55 49/53/53
f 84/54/54 51/56/56 50/55/55
f 84/54/54 88/13/13 52/15/15
f 3/57/57 28/64/63 73/58/58
s 0
f 9/59/181 73/58/181 74/60/181
f 10/61/61 74/60/61 75/62/61
f 75/62/182 76/49/182 12/51/182
s 1
f 28/64/63 27/69/69 77/65/64
s 0
f 73/58/183 77/65/183 78/66/183
f 78/66/66 79/67/66 75/62/66
f 79/67/184 80/52/184 76/49/184
s 1
f 26/68/68 81/70/74 77/65/64
s 0
f 81/70/70 82/71/70 78/66/70
f 82/71/71 83/72/71 79/67/71
f 83/72/72 84/54/72 80/52/72
s 1
f 25/73/73 85/74/79 81/70/74
s 0
f 85/74/185 86/75/185 82/71/185
f 86/75/76 87/79/76 83/72/76
f 83/72/186 87/79/186 88/13/186
s 1
f 7/76/78 40/77/109 85/74/79
s 0
f 40/77/187 39/115/187 86/75/187
f 86/75/81 39/115/81 38/78/81
f 87/79/188 38/78/188 37/80/188
s 1
f 92/81/83 13/85/85 1/82/50
f 96/84/84 14/87/87 13/85/85
f 100/86/86 15/88/88 14/87/87
f 100/86/86 104/10/10 16/12/12
f 5/14/14 48/95/92 89/89/89
f 52/90/15 89/89/89 90/91/90
f 90/91/90 91/94/91 50/93/55
f 91/94/91 92/81/83 49/83/53
f 48/95/92 47/100/97 93/96/93
f 89/89/89 93/96/93 94/97/94
f 94/97/94 95/98/95 91/94/91
f 95/98/95 96/84/84 92/81/83
f 46/99/96 97/103/100 93/96/93
f 93/96/93 97/103/100 98/101/98
f 98/101/98 99/102/99 95/98/95
f 99/102/99 100/86/86 96/84/84
f 45/9/9 101/104/101 97/103/100
f 101/104/101 102/105/102 98/101/98
f 102/105/102 103/108/103 99/102/99
f 99/102/99 103/108/103 104/10/10
f 6/8/8 53/106/21 101/104/101
f 53/106/21 54/107/23 102/105/102
f 54/107/23 55/184/24 103/108/103
f 103/108/103 55/184/24 56/109/17
f 108/110/104 48/95/92 5/14/14
f 112/111/106 47/100/97 48/95/92
f 116/112/107 46/99/96 47/100/97
f 116/112/107 120/7/7 45/9/9
f 7/76/78 36/117/113 105/113/108
s 0
f 40/77/189 105/113/189 106/114/189
f 39/115/111 106/114/111 107/116/111
f 107/116/190 108/110/190 37/80/190
s 1
f 36/117/113 35/122/119 109/118/114
s 0
f 105/113/191 109/118/191 110/119/191
f 110/119/116 111/120/116 107/116/116
f 111/120/192 112/111/192 108/110/192
s 1
f 34/121/118 113/123/123 109/118/114
s 0
f 113/123/120 114/124/120 110/119/120
f 114/124/121 115/125/121 111/120/121
f 115/125/122 116/112/122 112/111/122
s 1
f 33/6/6 117/126/127 113/123/123
s 0
f 117/126/193 118/127/193 114/124/193
f 118/127/125 119/128/125 115/125/125
f 115/125/194 119/128/194 120/7/194
s 1
f 8/5/5 41/27/26 117/126/127
s 0
f 41/27/195 42/29/195 118/127/195
f 42/29/129 43/31/129 119/128/129
f 119/128/196 43/31/196 44/20/196
s 1
f 124/129/131 36/117/113 7/76/78
f 128/131/132 35/122/119 36/117/113
f 132/132/133 34/121/118 35/122/119
f 132/132/133 136/4/4 33/6/6
f 3/133/57 24/140/137 121/134/134
f 28/135/63 121/134/134 122/136/135
f 122/136/135 123/139/136 26/138/68
f 123/139/136 124/129/131 25/130/73
f 24/140/137 23/145/142 125/141/138
f 121/134/134 125/141/138 126/142/139
f 126/142/139 127/143/140 123/139/136
f 127/143/140 128/131/132 124/129/131
f 22/144/141 129/148/145 125/141/138
f 125/141/138 129/148/145 130/146/143
f 130/146/143 131/147/144 127/143/140
f 131/147/144 132/132/133 128/131/132
f 21/3/3 133/149/146 129/148/145
f 133/149/146 134/150/147 130/146/143
f 134/150/147 135/153/148 131/147/144
f 131/147/144 135/153/148 136/4/4
f 4/2/2 29/151/40 133/149/146
f 29/151/40 30/152/35 134/150/147
f 30/152/35 31/185/36 135/153/148
f 135/153/148 31/185/36 32/154/30
f 140/155/149 24/140/137 3/133/57
f 144/157/150 23/145/142 24/140/137
f 148/158/151 22/144/141 23/145/142
f 148/158/151 152/1/1 21/3/3
f 1/159/50 13/166/85 137/160/152
s 0
f 12/161/197 137/160/197 138/162/197
f 11/163/154 138/162/154 139/164/154
f 139/164/198 140/155/198 9/156/198
s 1
f 13/166/85 14/171/87 141/167/156
s 0
f 137/160/199 141/167/199 142/168/199
f 142/168/158 143/169/158 139/164/158
f 143/169/200 144/157/200 140/155/200
s 1
f 15/170/88 145/172/163 141/167/156
s 0
f 145/172/160 146/173/160 142/168/160
f 146/173/161 147/174/161 143/169/161
f 147/174/162 148/158/162 144/157/162
s 1
f 16/175/12 149/176/167 145/172/163
s 0
f 149/176/201 150/177/201 146/173/201
f 150/177/165 151/181/165 147/174/165
f 147/174/202 151/181/202 152/1/202
s 1
f 2/178/11 17/179/172 149/176/167
s 0
f 17/179/203 18/180/203 150/177/203
f 18/180/169 19/186/169 151/181/169
f 151/181/204 19/186/204 20/182/204
