# Blender 3.5.0
# www.blender.org
mtllib doubleBox.mtl
o Cube
v -4.000000 1.000000 1.000000
v -4.000000 -1.000000 1.000000
v -4.000000 1.000000 -1.000000
v -4.000000 -1.000000 -1.000000
v -2.000000 1.000000 1.000000
v -2.000000 -1.000000 1.000000
v -2.000000 1.000000 -1.000000
v -2.000000 -1.000000 -1.000000
vn -0.0000 1.0000 -0.0000
vn -0.0000 -0.0000 -1.0000
vn 1.0000 -0.0000 -0.0000
vn -0.0000 -1.0000 -0.0000
vn -1.0000 -0.0000 -0.0000
vn -0.0000 -0.0000 1.0000
vt 1.000000 1.000000
vt 1.000000 1.000000
vt 1.000000 0.000000
vt 1.000000 0.000000
vt 1.000000 1.000000
vt 0.000000 1.000000
vt 1.000000 0.000000
vt 0.000000 0.000000
vt 1.000000 1.000000
vt 0.000000 1.000000
vt 0.000000 1.000000
vt 0.000000 0.000000
vt 1.000000 0.000000
vt 0.000000 0.000000
vt 0.000000 1.000000
vt 0.000000 0.000000
s 0
usemtl Material
f 5/10/1 3/4/1 1/1/1
f 3/5/2 8/16/2 4/7/2
f 7/15/3 6/13/3 8/16/3
f 2/2/4 8/16/4 6/11/4
f 1/1/5 4/8/5 2/3/5
f 5/10/6 2/3/6 6/12/6
f 5/10/1 7/14/1 3/4/1
f 3/5/2 7/15/2 8/16/2
f 7/15/3 5/9/3 6/13/3
f 2/2/4 4/7/4 8/16/4
f 1/1/5 3/6/5 4/8/5
f 5/10/6 1/1/6 2/3/6
o Cube2
v 4.000000 -1.000000 -1.000000
v 4.000000 1.000000 -1.000000
v 4.000000 -1.000000 1.000000
v 4.000000 1.000000 1.000000
v 2.000000 -1.000000 -1.000000
v 2.000000 1.000000 -1.000000
v 2.000000 -1.000000 1.000000
v 2.000000 1.000000 1.000000
vn 1.0000 -0.0000 -0.0000
vn -0.0000 -0.0000 1.0000
vn -1.0000 -0.0000 -0.0000
vn -0.0000 -0.0000 -1.0000
vn -0.0000 -1.0000 -0.0000
vn -0.0000 1.0000 -0.0000
vt 0.000000 0.000000
vt 0.000000 1.000000
vt 0.000000 0.000000
vt 0.000000 0.000000
vt 0.000000 1.000000
vt 1.000000 0.000000
vt 1.000000 1.000000
vt 0.000000 1.000000
vt 0.000000 0.000000
vt 1.000000 0.000000
vt 0.000000 1.000000
vt 1.000000 1.000000
vt 1.000000 0.000000
vt 1.000000 0.000000
vt 1.000000 1.000000
vt 1.000000 1.000000
s 0
usemtl Material2
f 10/18/7 11/22/7 9/17/7
f 12/24/8 15/30/8 11/20/8
f 16/32/9 13/25/9 15/30/9
f 14/28/10 9/17/10 13/26/10
f 15/31/11 9/17/11 11/21/11
f 12/24/12 14/29/12 16/32/12
f 10/18/7 12/23/7 11/22/7
f 12/24/8 16/32/8 15/30/8
f 16/32/9 14/27/9 13/25/9
f 14/28/10 10/18/10 9/17/10
f 15/31/11 13/26/11 9/17/11
f 12/24/12 10/19/12 14/29/12
